<svg xmlns="http://www.w3.org/2000/svg" xmlns:xlink="http://www.w3.org/1999/xlink" width="20" height="20" viewBox="0 0 20 20"><defs><path id="8x98a" d="M1451 26.34l-1.87 8c0 1.47-1.12 2.66-2.5 2.66h-6.87c-1.38 0-2.5-1.2-2.5-2.66l-1.25-8-1.25-4h-3.13c-.34 0-.62-.3-.62-.66 0-.37.28-.67.62-.67h4.05l1.56 5.33zm-13.53 1.33l1.04 6.67c0 .73.56 1.33 1.25 1.33h6.87c.69 0 1.25-.6 1.25-1.33l1.56-6.67zm2.29 10.66c.69 0 1.25.6 1.25 1.34 0 .73-.56 1.33-1.25 1.33-.7 0-1.25-.6-1.25-1.33 0-.74.56-1.34 1.25-1.34zm6.24 0c.7 0 1.25.6 1.25 1.34 0 .73-.56 1.33-1.25 1.33s-1.25-.6-1.25-1.33c0-.74.56-1.34 1.25-1.34z"/></defs><g><g transform="translate(-1431 -21)"><use fill="#362977" xlink:href="#8x98a"/></g></g></svg>