<svg xmlns="http://www.w3.org/2000/svg" xmlns:xlink="http://www.w3.org/1999/xlink" width="20" height="20" viewBox="0 0 20 20"><defs><path id="55hma" d="M1298.73 30.36l-7.78 9.9c-.88.97-1.04.97-1.91 0l-7.77-9.9a6.77 6.77 0 0 1-1.27-3.76c0-2.92 2.07-5.6 5-5.6 2.08 0 3.72 1.21 5 2.65 1.34-1.35 2.92-2.65 5-2.65 2.93 0 5 2.68 5 5.6 0 1.57-.49 2.7-1.27 3.76zm-1.23-.28a5.27 5.27 0 0 0 1.25-3.48c0-2.28-1.6-4.36-3.75-4.36-1.82 0-3.92 2.02-5 3.46-1.11-1.5-3.18-3.47-5-3.46-2.22.02-3.75 2.08-3.75 4.36 0 1.23.35 2.12 1.25 3.44l7.5 9.55z"/></defs><g><g transform="translate(-1280 -21)"><use fill="#362977" xlink:href="#55hma"/></g></g></svg>