<svg id="wallet" viewBox="0 0 24 23">
<path d="M6.23291 4.21444L15.4757 1.70473L14.9862 0.720527C14.666 0.0807972 13.8849 -0.183383 13.2418 0.135187L4.96756 4.21444H6.23291Z" fill="#4F4F4F"/>
<path d="M18.3449 1.77759C18.2304 1.77759 18.1158 1.79313 18.0012 1.82421L15.8298 2.41473L9.19846 4.21478H16.7255H20.006L19.5998 2.7333C19.4436 2.15573 18.9177 1.77759 18.3449 1.77759Z" fill="#4F4F4F"/>
<path d="M21.3625 5.12109H21.0657H20.6621H20.2586H17.1785H5.86069H4.37663H3.12691H2.89519H2.11931C1.70795 5.12109 1.34084 5.31016 1.10131 5.60801C0.991956 5.74528 0.90864 5.90327 0.861776 6.0768C0.833136 6.18558 0.814911 6.29954 0.814911 6.41609V6.57149V8.04779V20.845C0.814911 21.5598 1.39812 22.14 2.11671 22.14H21.3599C22.0785 22.14 22.6617 21.5598 22.6617 20.845V17.2319H14.9368C13.7157 17.2319 12.7238 16.2451 12.7238 15.0304V13.8442V13.4428V13.0413V12.1503C12.7238 11.5546 12.9633 11.0134 13.3512 10.6171C13.6949 10.2648 14.1558 10.0266 14.6713 9.96698C14.7572 9.95665 14.8457 9.95144 14.9342 9.95144H21.5786H21.9822H22.3857H22.6617V6.41609C22.6643 5.70125 22.0811 5.12109 21.3625 5.12109Z" fill="#4F4F4F"/>
<path d="M23.5756 11.1894C23.4454 11.0702 23.2918 10.9796 23.1199 10.92C22.9871 10.876 22.8465 10.8501 22.6981 10.8501H22.6643H22.6383H22.2347H20.7793H14.9368C14.2182 10.8501 13.635 11.4302 13.635 12.1451V12.79V13.1914V13.5929V15.0277C13.635 15.7426 14.2182 16.3227 14.9368 16.3227H22.6643H22.6981C22.8465 16.3227 22.9871 16.2968 23.1199 16.2528C23.2918 16.1958 23.4454 16.1026 23.5756 15.9835C23.8359 15.7478 23.9999 15.4059 23.9999 15.0278V12.1451C23.9999 11.7669 23.8359 11.425 23.5756 11.1894ZM17.655 13.8441C17.655 14.2015 17.3634 14.4916 17.0041 14.4916H16.5719C16.2126 14.4916 15.921 14.2015 15.921 13.8441V13.4142C15.921 13.207 16.0173 13.0231 16.1709 12.9065C16.2829 12.821 16.4209 12.7667 16.5719 12.7667H16.6812H17.0041C17.3634 12.7667 17.655 13.0567 17.655 13.4142V13.8441Z" fill="#4F4F4F"/>
</svg>
