<svg id="bank" viewBox="0 0 21 21">
<path d="M20.0114 19.0903H0.95316C0.426601 19.0903 0 19.5177 0 20.0456C0 20.5726 0.426601 21 0.95316 21H20.011C20.5376 21 20.9642 20.5726 20.9642 20.0456C20.9637 19.5177 20.5371 19.0903 20.0114 19.0903Z" fill="#4F4F4F"/>
<path d="M2.1442 16.6077C1.61764 16.6077 1.19104 17.0351 1.19104 17.5625C1.19104 18.09 1.61764 18.5178 2.1442 18.5178H18.82C19.3466 18.5178 19.7732 18.09 19.7732 17.5625C19.7732 17.0351 19.3466 16.6077 18.82 16.6077H18.5822V8.01618H18.82C19.0838 8.01618 19.2962 7.8025 19.2962 7.53922C19.2962 7.27593 19.0829 7.06226 18.82 7.06226H2.1442C1.88092 7.06226 1.66807 7.27593 1.66807 7.53922C1.66807 7.8025 1.88137 8.01618 2.1442 8.01618H2.38249V16.6073H2.1442V16.6077ZM16.6759 8.01618V16.6073H13.8173V8.01618H16.6759ZM11.911 8.01618V16.6073H9.05238V8.01618H11.911ZM4.28792 8.01618H7.1465V16.6073H4.28792V8.01618Z" fill="#4F4F4F"/>
<path d="M0.953178 6.20428H20.011C20.0141 6.20428 20.0177 6.20428 20.0204 6.20428C20.5474 6.20428 20.9735 5.77694 20.9735 5.24946C20.9735 4.83017 20.704 4.4748 20.3296 4.34606L10.8739 0.0838144C10.6253 -0.0279381 10.3411 -0.0279381 10.0921 0.0838144L0.562275 4.37914C0.152184 4.5642 -0.0731646 5.01031 0.0214374 5.45017C0.115593 5.89003 0.503818 6.20428 0.953178 6.20428Z" fill="#4F4F4F"/>
</svg>
