<svg viewBox="0 0 16 15">
<path d="M0.591912 1.22283H2.28871L4.7057 10.2513C4.77474 10.5163 5.01151 10.6997 5.27787 10.6997H12.7064C12.9431 10.6997 13.1503 10.557 13.2489 10.3329L15.952 3.91304C16.0309 3.71944 16.0112 3.50544 15.9027 3.3322C15.7941 3.15895 15.6067 3.05706 15.4094 3.05706H7.20158C6.87603 3.05706 6.60967 3.3322 6.60967 3.66848C6.60967 4.00475 6.87603 4.27989 7.20158 4.27989H14.5018L12.3118 9.47689H5.7218L3.30485 0.448381C3.23581 0.183424 2.99904 0 2.73268 0H0.591912C0.26636 0 0 0.275136 0 0.611412C0 0.947689 0.26636 1.22283 0.591912 1.22283Z"/>
<path d="M4.71553 15C5.45542 15 6.05718 14.3784 6.05718 13.6141C6.05718 12.8499 5.45542 12.2283 4.71553 12.2283C3.97564 12.2283 3.37387 12.8498 3.37387 13.6141C3.37387 14.3784 3.97564 15 4.71553 15Z"/>
<path d="M13.101 15C13.1306 15 13.1701 15 13.1996 15C13.5548 14.9694 13.8803 14.8064 14.1171 14.521C14.3539 14.2459 14.4624 13.8892 14.4427 13.5122C14.3933 12.7581 13.7521 12.1772 13.0122 12.2282C12.2723 12.2792 11.7199 12.9517 11.7692 13.7058C11.8185 14.4293 12.4006 15 13.101 15Z"/>
</svg>
