<svg id="instagram" viewBox="0 0 38 38">
<path d="M26.6796 0H11.3204C5.07831 0 0 5.07831 0 11.3204V26.6796C0 32.9217 5.07831 38 11.3204 38H26.6796C32.9217 38 38 32.9217 38 26.6796V11.3204C37.9999 5.07831 32.9216 0 26.6796 0ZM34.1772 26.6796C34.1772 30.8204 30.8204 34.1772 26.6796 34.1772H11.3204C7.17963 34.1772 3.8228 30.8204 3.8228 26.6796V11.3204C3.8228 7.17956 7.17963 3.8228 11.3204 3.8228H26.6796C30.8204 3.8228 34.1772 7.17956 34.1772 11.3204V26.6796Z" fill="url(#paint0_linear)"/>
<path d="M19 9.17188C13.5807 9.17188 9.17184 13.5808 9.17184 19C9.17184 24.4191 13.5807 28.8281 19 28.8281C24.4192 28.8281 28.8281 24.4192 28.8281 19C28.8281 13.5807 24.4192 9.17188 19 9.17188ZM19 25.0054C15.6833 25.0054 12.9946 22.3167 12.9946 19C12.9946 15.6833 15.6834 12.9947 19 12.9947C22.3167 12.9947 25.0054 15.6833 25.0054 19C25.0054 22.3167 22.3166 25.0054 19 25.0054Z" fill="url(#paint1_linear)"/>
<path d="M28.8472 11.6007C30.1478 11.6007 31.2022 10.5463 31.2022 9.24565C31.2022 7.94501 30.1478 6.89062 28.8472 6.89062C27.5465 6.89062 26.4922 7.94501 26.4922 9.24565C26.4922 10.5463 27.5465 11.6007 28.8472 11.6007Z" fill="url(#paint2_linear)"/>
<defs>
<linearGradient id="paint0_linear" x1="19" y1="37.8894" x2="19" y2="0.295152" gradientUnits="userSpaceOnUse">
<stop stop-color="#E09B3D"/>
<stop offset="0.3" stop-color="#C74C4D"/>
<stop offset="0.6" stop-color="#C21975"/>
<stop offset="1" stop-color="#7024C4"/>
</linearGradient>
<linearGradient id="paint1_linear" x1="19" y1="37.8894" x2="19" y2="0.295182" gradientUnits="userSpaceOnUse">
<stop stop-color="#E09B3D"/>
<stop offset="0.3" stop-color="#C74C4D"/>
<stop offset="0.6" stop-color="#C21975"/>
<stop offset="1" stop-color="#7024C4"/>
</linearGradient>
<linearGradient id="paint2_linear" x1="28.8472" y1="37.8894" x2="28.8472" y2="0.295171" gradientUnits="userSpaceOnUse">
<stop stop-color="#E09B3D"/>
<stop offset="0.3" stop-color="#C74C4D"/>
<stop offset="0.6" stop-color="#C21975"/>
<stop offset="1" stop-color="#7024C4"/>
</linearGradient>
</defs>
</svg>
