<svg viewBox="0 0 13 11">
<path d="M12.659 0.367165C12.4318 0.122343 12.1584 0 11.8393 0H1.16074C0.841551 0 0.56825 0.122343 0.34094 0.367165C0.113604 0.611932 0 0.906227 0 1.25002V9.75006C0 10.0939 0.113604 10.388 0.34094 10.6327C0.568224 10.8777 0.841525 11 1.16074 11H11.8393C12.1585 11 12.4318 10.8777 12.6591 10.6327C12.8864 10.388 13 10.0937 13 9.75006V1.25002C13 0.906227 12.8864 0.611932 12.659 0.367165ZM12.0713 9.74987C12.0713 9.81759 12.0484 9.87618 12.0024 9.92565C11.9564 9.97518 11.902 9.9997 11.8392 9.9997H1.16066C1.0978 9.9997 1.04338 9.97518 0.997461 9.92565C0.951496 9.87618 0.928551 9.81759 0.928551 9.74987V3.74993C1.08329 3.93743 1.25015 4.10933 1.42911 4.26555C2.72528 5.33845 3.75539 6.21859 4.51955 6.90613C4.76619 7.13013 4.96693 7.30457 5.12167 7.4296C5.27641 7.55468 5.48558 7.68093 5.74912 7.80847C6.01269 7.93621 6.26058 7.99977 6.49272 7.99977H6.50001H6.50723C6.73932 7.99977 6.98731 7.93621 7.25078 7.80847C7.51442 7.68093 7.72372 7.5547 7.87841 7.4296C8.03312 7.30457 8.23388 7.13013 8.48055 6.90613C9.24471 6.21859 10.2747 5.33845 11.5709 4.26555C11.7499 4.10935 11.9168 3.93743 12.0713 3.74993V9.74987ZM12.0713 1.45309V1.53901C12.0713 1.84628 11.959 2.18876 11.7341 2.56632C11.5092 2.94388 11.2661 3.24472 11.0051 3.46861C10.0716 4.2604 9.10204 5.08582 8.09588 5.94518C8.06692 5.9712 7.9822 6.04798 7.84189 6.17552C7.70179 6.30326 7.5905 6.40103 7.50825 6.46864C7.4259 6.53645 7.31842 6.61846 7.18547 6.71472C7.05243 6.81099 6.93034 6.88274 6.81913 6.92956C6.70791 6.97627 6.60391 6.99966 6.50723 6.99966H6.50001H6.49272C6.39601 6.99966 6.29211 6.97627 6.18082 6.92956C6.06961 6.88274 5.94744 6.81099 5.8145 6.71472C5.68158 6.61843 5.57395 6.53642 5.49173 6.46864C5.40955 6.40103 5.29826 6.30326 5.15805 6.17552C5.0178 6.04798 4.93308 5.9712 4.90409 5.94518C3.89817 5.0858 2.92853 4.2604 1.99507 3.46861C1.2841 2.86453 0.928678 2.12489 0.928678 1.24989C0.928678 1.18224 0.951623 1.1236 0.997588 1.07419C1.04355 1.02468 1.09793 0.99992 1.16079 0.99992H11.8394C11.878 1.02332 11.9119 1.02983 11.9409 1.01949C11.97 1.00895 11.9917 1.02854 12.0061 1.07799C12.0207 1.12749 12.034 1.15089 12.046 1.14831C12.0582 1.14569 12.0655 1.17822 12.0679 1.24603C12.0701 1.3137 12.0713 1.34777 12.0713 1.34777V1.45309H12.0713Z"/>
</svg>
