<svg id="mastercard" viewBox="0 0 33 21">
<path d="M9.33073 9.10693C8.74141 9.10693 8.28967 9.302 8.28967 9.302L8.1649 10.065C8.1649 10.065 8.53754 9.90899 9.1018 9.90899C9.42208 9.90899 9.65603 9.94571 9.65603 10.2136C9.65603 10.3766 9.62762 10.4368 9.62762 10.4368C9.62762 10.4368 9.37529 10.4156 9.25832 10.4156C8.5147 10.4156 7.73376 10.7415 7.73376 11.7277C7.73376 12.5045 8.24566 12.6818 8.56372 12.6818C9.17031 12.6818 9.43211 12.2767 9.44548 12.2756L9.41707 12.6141H10.1741L10.5116 10.1758C10.5111 9.14021 9.63486 9.10693 9.33073 9.10693ZM8.90629 11.9399C8.63947 11.9399 8.56985 11.7305 8.56985 11.6055C8.56985 11.3634 8.6974 11.0719 9.32739 11.0719C9.47444 11.0725 9.49004 11.088 9.51455 11.0926C9.53126 11.2417 9.42431 11.9399 8.90629 11.9399Z" fill="#4F4F4F"/>
<path d="M12.0645 9.92427C12.1854 9.92427 12.6516 9.96386 12.6516 9.96386L12.7602 9.18246C12.7602 9.18246 12.4583 9.11304 11.967 9.11304C11.3309 9.11304 10.6859 9.37465 10.6859 10.2691C10.6859 11.2834 11.7621 11.1801 11.7621 11.6081C11.7621 11.8927 11.4613 11.9162 11.2296 11.9162C10.8279 11.9162 10.467 11.7751 10.4659 11.7808L10.3511 12.5559C10.3717 12.5617 10.5946 12.6638 11.3159 12.6638C11.5092 12.6638 12.616 12.7154 12.616 11.5387C12.616 10.4383 11.5916 10.6558 11.5916 10.2134C11.5916 9.99312 11.7582 9.92427 12.0645 9.92427Z" fill="#4F4F4F"/>
<path d="M13.8733 10.0242H14.3284L14.4381 9.19115H14.0092L14.0967 8.6748H13.2372C13.2182 8.69374 12.7297 11.587 12.7297 11.9381C12.7297 12.4608 13.0144 12.6925 13.4149 12.6885C13.7285 12.6862 13.973 12.5967 14.0593 12.5721L14.1668 11.8194C14.1078 11.8194 14.0215 11.8457 13.9451 11.8457C13.646 11.8457 13.6132 11.6811 13.6321 11.56L13.8733 10.0242Z" fill="#4F4F4F"/>
<path d="M17.4754 5.19092H15.9414C15.7353 5.47778 15.5414 5.78299 15.366 6.08133H18.1026C17.9126 5.77037 17.7027 5.47319 17.4754 5.19092Z" fill="#4F4F4F"/>
<path d="M29.4448 15.2076C29.4281 15.1818 29.4141 15.1622 29.403 15.1502C29.3969 15.1444 29.389 15.1381 29.379 15.1352C29.403 15.1335 29.4231 15.1243 29.4376 15.1088C29.4515 15.0933 29.4593 15.0749 29.4593 15.0536C29.4593 15.0387 29.4549 15.0243 29.4465 15.0111C29.4381 14.9979 29.4259 14.9882 29.4108 14.983C29.3969 14.9772 29.3729 14.9744 29.34 14.9744H29.243V15.2645H29.2887V15.1415H29.3149C29.3305 15.1415 29.3433 15.145 29.3506 15.1519C29.3623 15.1616 29.379 15.1841 29.3985 15.2191L29.4231 15.2651H29.4794L29.4448 15.2076ZM29.3433 15.103H29.2876V15.0157H29.34C29.3617 15.0157 29.3762 15.0175 29.3846 15.0209C29.3935 15.0243 29.3991 15.0295 29.4041 15.0358C29.4086 15.0427 29.4108 15.0502 29.4108 15.0582C29.4108 15.0715 29.4063 15.0829 29.3969 15.091C29.3874 15.0985 29.369 15.103 29.3433 15.103Z" fill="#4F4F4F"/>
<path d="M18.5678 6.95483H14.8875C14.6525 7.41323 14.4965 7.75976 14.4525 7.84582H18.9164C18.8156 7.53945 18.6998 7.24284 18.5678 6.95483Z" fill="#4F4F4F"/>
<path d="M6.6804 8.40137L5.83318 10.9888L5.78917 8.40137H4.53477L3.84741 12.6176H4.67681L5.19985 9.43922L5.27672 12.6176H5.86883L6.97339 9.43922L6.48377 12.6176H7.36386L8.04175 8.40137H6.6804Z" fill="#4F4F4F"/>
<path d="M23.2661 9.10693C22.6756 9.10693 22.2245 9.302 22.2245 9.302L22.0991 10.065C22.0991 10.065 22.4723 9.90899 23.036 9.90899C23.3563 9.90899 23.5908 9.94571 23.5908 10.2136C23.5908 10.3766 23.5613 10.4368 23.5613 10.4368C23.5613 10.4368 23.3095 10.4156 23.1914 10.4156C22.4484 10.4156 21.668 10.7415 21.668 11.7277C21.668 12.5045 22.1805 12.6818 22.498 12.6818C23.104 12.6818 23.3658 12.2767 23.3797 12.2756L23.3513 12.6141H24.1077L24.4453 10.1758C24.447 9.14021 23.5702 9.10693 23.2661 9.10693ZM22.8427 11.9399C22.5754 11.9399 22.5063 11.7305 22.5063 11.6055C22.5063 11.3634 22.6339 11.0719 23.2639 11.0719C23.4103 11.0725 23.4259 11.088 23.451 11.0926C23.4672 11.2417 23.3597 11.9399 22.8427 11.9399Z" fill="#4F4F4F"/>
<path d="M29.4718 12.2295C29.449 12.1859 29.4156 12.1527 29.3738 12.1297C29.3326 12.1062 29.2903 12.0947 29.2457 12.0947C29.2028 12.0953 29.1599 12.1068 29.1176 12.1297C29.0758 12.1527 29.0435 12.1859 29.0201 12.2295C28.9967 12.2726 28.985 12.3173 28.985 12.3638C28.985 12.4103 28.9967 12.4544 29.0201 12.4969C29.0429 12.5394 29.0753 12.5732 29.1165 12.5973C29.1582 12.6208 29.2011 12.6329 29.2457 12.6329C29.2914 12.6329 29.3348 12.6208 29.3755 12.5973C29.4167 12.5732 29.449 12.5394 29.4718 12.4969C29.4958 12.4544 29.5064 12.4103 29.5064 12.3638C29.5064 12.3162 29.4952 12.2714 29.4718 12.2295ZM29.4356 12.4745C29.4167 12.5101 29.39 12.5371 29.3549 12.5583C29.3203 12.5778 29.2847 12.5881 29.2474 12.5881C29.2095 12.5881 29.1733 12.5778 29.1393 12.5583C29.1042 12.5382 29.078 12.5107 29.058 12.4745C29.0379 12.4384 29.029 12.4017 29.029 12.3632C29.029 12.3248 29.0385 12.2875 29.0591 12.2514C29.0786 12.2158 29.1048 12.1882 29.1404 12.1682C29.1761 12.1481 29.2112 12.1395 29.2474 12.1395C29.2836 12.1395 29.3192 12.1487 29.3532 12.1682C29.3889 12.1882 29.415 12.2152 29.4345 12.2514C29.454 12.2875 29.4646 12.3248 29.4646 12.3632C29.4646 12.4017 29.4551 12.439 29.4356 12.4745Z" fill="#4F4F4F"/>
<path d="M29.3345 12.4549C29.3183 12.4279 29.3038 12.409 29.2932 12.3975C29.2865 12.3912 29.2793 12.386 29.2692 12.3825C29.2932 12.3808 29.3127 12.3716 29.3272 12.3561C29.3412 12.3412 29.3495 12.3216 29.3495 12.301C29.3495 12.2866 29.3451 12.2717 29.3361 12.2584C29.3272 12.2458 29.3155 12.236 29.3016 12.2303C29.2876 12.2246 29.2631 12.2217 29.2302 12.2217H29.132V12.5112H29.1778V12.3883H29.204C29.2202 12.3883 29.233 12.3917 29.2408 12.398C29.2525 12.4084 29.2681 12.4302 29.2887 12.4664L29.3127 12.5118H29.369L29.3345 12.4549ZM29.2341 12.3486H29.1789V12.2607H29.2302C29.2525 12.2607 29.267 12.2625 29.2759 12.2653C29.2832 12.2694 29.2899 12.2734 29.2943 12.2809C29.2993 12.2883 29.3016 12.2946 29.3016 12.3044C29.3016 12.317 29.2966 12.328 29.2882 12.336C29.2776 12.3458 29.2603 12.3486 29.2341 12.3486Z" fill="#4F4F4F"/>
<path d="M26.1871 9.14917C25.8022 9.14917 25.5165 9.69018 25.5165 9.69018L25.5933 9.19277H24.7924L24.256 12.6248H25.1383C25.3895 11.1583 25.4352 9.96901 26.0317 10.1865C26.137 9.61962 26.2384 9.39988 26.3526 9.16064C26.3526 9.16122 26.2991 9.14917 26.1871 9.14917Z" fill="#4F4F4F"/>
<path d="M28.4041 8.40602L28.2186 9.59074C28.2186 9.59074 27.8955 9.13005 27.3886 9.13005C26.6004 9.13062 25.9443 10.1088 25.9443 11.2321C25.9443 11.9579 26.2946 12.6687 27.0098 12.6687C27.5251 12.6687 27.8103 12.2987 27.8103 12.2987L27.773 12.6148H28.609L29.2663 8.4043L28.4041 8.40602ZM27.314 11.8082C27.0043 11.8082 26.8595 11.5408 26.8595 11.1208C26.8595 10.4341 27.1586 9.98145 27.5368 9.98145C27.8454 9.98202 28.0041 10.2006 28.0041 10.7158C28.0041 11.1834 27.7796 11.8082 27.314 11.8082Z" fill="#4F4F4F"/>
<path d="M31.5976 0H1.75705C1.3092 0 0.947144 0.37349 0.947144 0.834185V20.1656C0.947144 20.6263 1.3092 20.9998 1.75705 20.9998H31.5976C32.0454 20.9998 32.4075 20.6263 32.4075 20.1656V0.834185C32.4075 0.37349 32.0454 0 31.5976 0ZM29.5828 15.2488C29.5594 15.2924 29.5277 15.3257 29.4865 15.3492C29.4452 15.3728 29.4018 15.3848 29.3572 15.3848C29.3116 15.3848 29.2681 15.3728 29.2269 15.3492C29.1862 15.3257 29.1539 15.2924 29.13 15.2488C29.1071 15.207 29.0954 15.1622 29.0954 15.1157C29.0954 15.0693 29.1071 15.0251 29.1305 14.9815C29.1534 14.9379 29.1868 14.9052 29.228 14.8817C29.2698 14.8593 29.3121 14.8472 29.3567 14.8472C29.4007 14.8472 29.443 14.8593 29.4842 14.8817C29.526 14.9052 29.5589 14.9379 29.5817 14.9815C29.6051 15.0251 29.6163 15.0698 29.6163 15.1157C29.6163 15.1616 29.6062 15.2081 29.5828 15.2488ZM30.1666 10.5002C30.1677 15.0928 26.5549 18.8174 22.0954 18.8185C20.0099 18.8191 18.1083 18.005 16.6756 16.6676C15.243 18.0027 13.3452 18.8162 11.2631 18.8162C6.80641 18.8162 3.18914 15.0911 3.18914 10.5002C3.18914 5.92765 6.778 2.2134 11.2113 2.18357C11.2286 2.18357 11.2458 2.18357 11.2631 2.18357C13.3452 2.18357 15.2435 2.9971 16.6762 4.33214C18.1083 2.99653 20.0077 2.18242 22.0915 2.18185C26.551 2.18013 30.1666 5.90298 30.1677 10.4962C30.1666 10.4973 30.1666 10.4979 30.1666 10.5002Z" fill="#4F4F4F"/>
<path d="M15.8488 15.7583C16.1045 16.0807 16.3752 16.3882 16.6743 16.6671C16.681 16.6608 16.6882 16.655 16.6949 16.6493C16.6949 16.6493 16.6944 16.6493 16.6944 16.6487H16.696C16.9901 16.3728 17.2648 16.0756 17.516 15.7583H15.8488Z" fill="#4F4F4F"/>
<path d="M16.9485 11.1937C16.9485 11.1937 17.0615 10.6199 17.0615 10.3864C17.0615 9.80296 16.7797 9.09155 15.8361 9.09155C14.9716 9.09213 14.3316 10.0514 14.3316 11.1357C14.3316 12.387 15.1332 12.6842 15.8166 12.6842C16.4472 12.6842 16.7246 12.5384 16.7246 12.5384L16.8761 11.6848C16.8761 11.6848 16.3965 11.9028 15.9631 11.9028C15.0401 11.9028 15.2017 11.1937 15.2017 11.1937H16.9485ZM15.8389 9.88615C16.3241 9.88615 16.2344 10.4478 16.2344 10.4926H15.2802C15.2802 10.4346 15.3704 9.88615 15.8389 9.88615Z" fill="#4F4F4F"/>
<path d="M20.9801 9.20926C21.4174 9.20926 21.7688 9.46227 21.7688 9.46227L21.9092 8.52424C21.9092 8.52424 21.389 8.30737 20.9411 8.30737C19.9491 8.30737 18.9838 9.19434 18.9838 10.8598C18.9838 11.9642 19.5046 12.6934 20.5306 12.6934C20.8202 12.6934 21.2826 12.5724 21.2826 12.5724L21.4363 11.6062C21.4363 11.6062 21.0152 11.8237 20.7256 11.8237C20.1151 11.8231 19.8705 11.3435 19.8705 10.8294C19.8705 9.78355 20.3952 9.20926 20.9801 9.20926Z" fill="#4F4F4F"/>
<path d="M14.7711 14.0115C14.9109 14.3207 15.0735 14.615 15.2479 14.9019H18.1126C18.2864 14.6162 18.4429 14.319 18.5827 14.0115H14.7711Z" fill="#4F4F4F"/>
<path d="M18.9682 9.14974C18.5833 9.14974 18.2981 9.69075 18.2981 9.69075L18.3755 9.19334H17.5751L17.0387 12.6253H17.921C18.1711 11.1595 18.2179 9.96958 18.8145 10.187C18.9192 9.61961 19.02 9.39988 19.1342 9.16007C19.1342 9.16007 19.0807 9.14859 18.9682 9.14974Z" fill="#4F4F4F"/>
</svg>
