<svg viewBox="0 0 30 30">
<path d="M15.0001 0C6.71635 0 0 6.71632 0 15C0 23.2836 6.71635 30 15.0001 30C23.2838 30 30 23.2835 30 15C30.0001 6.71632 23.2838 0 15.0001 0ZM22.9211 21.8867L21.7201 23.0879C21.5056 23.302 20.8778 23.4357 20.8576 23.4357C17.0581 23.4688 13.3997 21.9764 10.7118 19.2882C8.01649 16.5913 6.52233 12.92 6.56246 9.10767C6.56246 9.10594 6.69997 8.49606 6.9142 8.28386L8.11517 7.08272C8.55465 6.6412 9.39886 6.44168 9.99025 6.63953L10.2429 6.7238C10.8325 6.92147 11.4516 7.57345 11.6146 8.17412L12.2187 10.3914C12.3816 10.9938 12.1619 11.8508 11.7225 12.2903L10.9206 13.0923C11.7079 16.0071 13.9949 18.2945 16.9101 19.0837L17.7118 18.2815C18.1533 17.84 19.01 17.6204 19.6111 17.7831L21.8281 18.3894C22.4289 18.5545 23.0807 19.1697 23.2783 19.7591L23.3626 20.0154C23.5585 20.6051 23.3605 21.4492 22.9211 21.8867Z"/>
</svg>
