<svg viewBox="0 0 11 11">
<path d="M5.91918 1.23117C5.91927 1.23117 5.91927 1.23117 5.91943 1.23117C6.93857 1.23117 7.89673 1.61754 8.61741 2.31902C9.33818 3.02059 9.73513 3.95338 9.73504 4.94553C9.73504 5.28552 10.0181 5.56115 10.3674 5.56115C10.3675 5.56115 10.3675 5.56115 10.3675 5.56115C10.7168 5.56115 11 5.2856 11 4.94561C11.0001 3.62456 10.4716 2.38255 9.5119 1.44844C8.55231 0.514335 7.27656 0 5.91943 0C5.91935 0 5.9191 0 5.91901 0C5.56972 0 5.28662 0.275636 5.28662 0.615626C5.28671 0.955533 5.56989 1.23117 5.91918 1.23117Z"/>
<path d="M5.91901 3.39605C6.79672 3.39621 7.51092 4.09129 7.511 4.94554C7.51108 5.28553 7.79418 5.56116 8.14356 5.56108C8.49294 5.56108 8.77604 5.28536 8.77595 4.94537C8.7757 3.41238 7.49422 2.16504 5.91918 2.16479H5.9191C5.5698 2.16479 5.28671 2.44035 5.28662 2.78034C5.28662 3.12033 5.56972 3.39605 5.91901 3.39605Z"/>
<path d="M3.08288 4.45086C2.79456 4.64277 2.7206 5.02586 2.91768 5.3065C3.11476 5.58714 3.50841 5.65905 3.79674 5.46722C4.0235 5.31635 4.55461 4.9629 4.51734 4.25632C4.49373 3.83343 4.10184 3.22962 3.77726 2.79754C3.30248 2.16533 2.89331 1.78455 2.56366 1.66651C2.25586 1.55496 1.93397 1.55258 1.60626 1.65961C0.927486 1.88222 0.43466 2.28452 0.181163 2.82298C-0.0656711 3.34717 -0.0601897 3.94958 0.197102 4.56545C0.804785 6.01652 1.65551 7.28693 2.73131 8.34679C3.81453 9.38834 5.11963 10.2164 6.61101 10.8082C6.93374 10.936 7.25301 11 7.55989 11C7.8542 11 8.13713 10.9412 8.40075 10.8236C8.95395 10.5767 9.36717 10.0971 9.59613 9.43562C9.70576 9.11739 9.70331 8.80424 9.58963 8.50669C9.46752 8.18352 9.07623 7.78534 8.4268 7.32321C7.98281 7.00727 7.36247 6.62583 6.92632 6.60276C6.20192 6.5673 5.83913 7.08336 5.68413 7.30408C5.48697 7.58473 5.56076 7.96781 5.84908 8.1598C6.13749 8.35179 6.53098 8.27989 6.72823 7.99925C6.79704 7.90132 6.83634 7.85683 6.85885 7.83738C7.21388 7.94811 8.22627 8.67208 8.40851 8.94953C8.41298 8.96726 8.41399 8.99426 8.39712 9.04343C8.31734 9.274 8.16175 9.57582 7.87377 9.70437C7.60399 9.82454 7.29745 9.75083 7.08815 9.668C5.75177 9.13766 4.58506 8.3985 3.62572 7.47613C2.6727 6.53718 1.91331 5.40155 1.36879 4.10127C1.28344 3.89705 1.20763 3.59851 1.33117 3.33617C1.46315 3.05585 1.77332 2.90433 2.00944 2.82684C2.05987 2.81042 2.08762 2.81133 2.10684 2.81584C2.39196 2.99355 3.13534 3.97839 3.24918 4.32404C3.22911 4.34563 3.18349 4.38396 3.08288 4.45086Z"/>
</svg>
