<svg id="video" viewBox="0 0 80 80">
<path d="M74.6339 20.0031C63.5902 0.874518 39.1298 -5.6798 20.003 5.36608C0.874698 16.4084 -5.6798 40.8681 5.36595 59.9959C16.4081 79.1244 40.8678 85.6798 59.9948 74.6349C79.1234 63.5888 85.681 39.1303 74.6339 20.0031ZM55.9965 67.7056C40.6961 76.5425 21.1266 71.2988 12.2923 55.9952C3.45605 40.6946 8.70153 21.1251 24.0024 12.2926C39.3038 3.45615 58.8723 8.69941 67.707 24.0025C76.5421 39.3053 71.2981 58.8707 55.9965 67.7056ZM54.3971 38.3743L33.4554 26.1605C31.547 25.0464 30.0077 25.9371 30.0184 28.1446L30.1257 52.3877C30.1353 54.5947 31.6935 55.4931 33.6075 54.3876L54.3889 42.3893C56.3009 41.2858 56.3049 39.4885 54.3971 38.3743Z" fill="#009FC3"/>
</svg>
