<svg id="visa" viewBox="0 0 43 14">
<path d="M17.5003 0.711182L15.3916 13.0098H18.7641L20.8745 0.711182H17.5003Z" fill="#4F4F4F"/>
<path d="M12.5639 0.725243L9.26077 9.11255L8.9086 7.84613C8.25718 6.32023 6.40786 4.12879 4.23672 2.74771L7.25705 13.004L10.8256 12.998L16.1367 0.722656L12.5639 0.725243Z" fill="#4F4F4F"/>
<path d="M7.62812 1.60586C7.43209 0.856697 6.86393 0.633414 6.15872 0.606689H0.929967L0.886597 0.851524C4.95562 1.83259 7.64807 4.19645 8.7653 7.03877L7.62812 1.60586Z" fill="#4F4F4F"/>
<path d="M27.7096 3.06904C28.813 3.0518 29.6127 3.29146 30.2338 3.53974L30.5383 3.68199L30.9945 1.01639C30.3266 0.767248 29.2796 0.5 27.9733 0.5C24.6407 0.5 22.2918 2.16815 22.2736 4.55873C22.2519 6.32516 23.9468 7.3114 25.2271 7.90021C26.5412 8.50367 26.9819 8.88731 26.9758 9.42612C26.9654 10.2494 25.928 10.627 24.9591 10.627C23.6085 10.627 22.8912 10.4417 21.7835 9.98303L21.3489 9.78647L20.8744 12.5391C21.6638 12.8831 23.1201 13.1788 24.632 13.1943C28.1772 13.1943 30.481 11.546 30.5053 8.99162C30.52 7.59416 29.6205 6.52776 27.6715 5.65273C26.4918 5.08203 25.7701 4.7027 25.777 4.12683C25.777 3.6156 26.3894 3.06904 27.7096 3.06904Z" fill="#4F4F4F"/>
<path d="M39.6495 0.725342H37.0438C36.2345 0.725342 35.6325 0.944314 35.2769 1.74606L30.2693 13.0171H33.811C33.811 13.0171 34.3887 11.5015 34.5196 11.1696C34.9074 11.1696 38.3484 11.1748 38.8385 11.1748C38.9391 11.6041 39.2496 13.0171 39.2496 13.0171H42.3784L39.6495 0.725342ZM35.4903 8.65229C35.7678 7.94624 36.8339 5.21512 36.8339 5.21512C36.8157 5.24875 37.1089 4.5039 37.2832 4.04095L37.5105 5.10133C37.5105 5.10133 38.1567 8.03762 38.292 8.65229H35.4903Z" fill="#4F4F4F"/>
</svg>
