<svg viewBox="0 0 13 13">
<path d="M13 6.33317C13 9.82855 10.1438 12.6669 6.61972 12.6669C5.50227 12.6669 4.44979 12.3787 3.53546 11.8793L0 13L1.15375 9.6005C0.570905 8.64718 0.235632 7.52864 0.235632 6.33371C0.235632 2.83672 3.09291 0 6.61969 0C10.1438 0 13 2.83672 13 6.33317ZM6.61969 1.00859C3.66166 1.00859 1.25233 3.39572 1.25233 6.33371C1.25233 7.50045 1.63257 8.57946 2.27392 9.45695L1.60549 11.4292L3.66762 10.7775C4.51371 11.3344 5.52878 11.6556 6.61969 11.6556C9.57557 11.6556 11.9844 9.26738 11.9844 6.32939C11.9844 3.39626 9.57557 1.00859 6.61969 1.00859ZM9.83992 7.79241C9.80199 7.72904 9.698 7.69057 9.54363 7.60716C9.38276 7.5297 8.61684 7.15865 8.46951 7.10773C8.32923 7.05572 8.22521 7.03027 8.12122 7.18464C8.01233 7.33793 7.71605 7.69111 7.62559 7.79239C7.52919 7.89529 7.43925 7.90831 7.28434 7.8314C7.1316 7.75503 6.62459 7.59036 6.02821 7.05953C5.56453 6.65058 5.24875 6.14302 5.15829 5.98541C5.06512 5.82887 5.14747 5.74546 5.22547 5.66909C5.29861 5.59867 5.38256 5.48601 5.46002 5.3961C5.54074 5.30674 5.56619 5.24282 5.61765 5.13989C5.66966 5.03372 5.6431 4.94436 5.60466 4.86418C5.56618 4.78673 5.25095 4.02461 5.12203 3.71316C4.99041 3.40279 4.86258 3.45425 4.7721 3.45425C4.67784 3.45425 4.57603 3.44126 4.46986 3.44126C4.36695 3.44126 4.19687 3.47918 4.05169 3.63679C3.91032 3.79061 3.5046 4.16599 3.5046 4.93082C3.5046 5.69348 4.06469 6.43449 4.14486 6.53631C4.22286 6.63921 5.22547 8.25446 6.81745 8.87632C8.40726 9.49814 8.40725 9.29285 8.6965 9.26686C8.9787 9.24087 9.62274 8.88986 9.75167 8.5302C9.87836 8.16453 9.87836 7.85688 9.83992 7.79241Z"/>
</svg>
