<?xml version="1.0" encoding="utf-8"?>
<!-- Generator: Adobe Illustrator 19.2.1, SVG Export Plug-In . SVG Version: 6.00 Build 0)  -->
<svg version="1.1" id="Слой_1" xmlns="http://www.w3.org/2000/svg" xmlns:xlink="http://www.w3.org/1999/xlink" x="0px" y="0px"
	 viewBox="0 0 1000 1000" style="enable-background:new 0 0 1000 1000;" xml:space="preserve">
<style type="text/css">
	.st0{fill:none;}
	.st1{fill:#F7DFEF;}
	.st2{fill:#FC63C5;}
	.st3{fill:#FFFFFF;}
	.st4{fill:#FF07A6;}
	.st5{fill:#60369E;}
	.st6{fill:#4AB55C;}
	.st7{fill:#E78386;}
	.st8{fill:#CDCFD0;}
</style>
<rect x="500" y="100" class="st0" width="16" height="16"/>
<rect x="400" y="100" class="st0" width="16" height="16"/>
<rect x="300" y="100" class="st0" width="16" height="16"/>
<rect x="200" y="100" class="st0" width="16" height="16"/>
<rect y="100" class="st0" width="16" height="16"/>
<rect x="300" class="st0" width="48" height="48"/>
<rect x="200" class="st0" width="48" height="48"/>
<rect x="100" class="st0" width="48" height="48"/>
<rect class="st0" width="48" height="48"/>
<rect x="400" class="st0" width="48" height="48"/>
<g>
	<g>
		<path class="st1" d="M125,45.8c0,0.6-0.6,1.1-1.2,1c-1.2-0.2-3.1-0.6-4.8-0.8c-2.4-0.3-14.5-0.8-18-1c-0.5,0-1-0.5-1-1V6
			c0-0.6,0.5-1,1-1c3.6,0.2,15.7,0.7,18,1c2.7,0.3,6,1,6,1V45.8z"/>
	</g>
	<g>
		<path class="st2" d="M102,7.1c7.2,0.3,15.1,0.7,16.8,0.9c1.4,0.1,3,0.4,4.2,0.6v35.9c-1.1-0.2-2.5-0.4-3.8-0.6
			c-2.3-0.3-12.2-0.7-17.2-0.9V7.1 M101,5.1c-0.5,0-1,0.4-1,1v38c0,0.5,0.4,1,1,1c3.5,0.1,15.6,0.7,18,1c1.8,0.2,3.6,0.5,4.8,0.8
			c0.1,0,0.1,0,0.2,0c0.5,0,1-0.4,1-1V7c0,0-3.3-0.7-6-1C116.7,5.8,104.7,5.2,101,5.1L101,5.1L101,5.1z"/>
	</g>
	<g>
		<path class="st3" d="M125,46c0,0-2.8-2.2-6-3c-2.6-0.7-8.9-1.6-11.1-1.9c-0.5-0.1-0.9-0.5-0.9-1v-38c0-0.6,0.5-1.1,1.1-1
			c2.6,0.4,8.7,1.2,10.9,1.8c3.1,0.9,6,3,6,3V46z"/>
	</g>
	<g>
		<path class="st2" d="M109,3.3c2.7,0.4,7.7,1.1,9.5,1.6S122,6.4,123,7v35.3c-1-0.5-2.2-1-3.5-1.4c-2.4-0.6-7.6-1.4-10.5-1.8V3.3
			 M108,1.2c-0.5,0-1,0.4-1,1v38c0,0.5,0.4,0.9,0.9,1c2.3,0.3,8.6,1.2,11.1,1.9c3.2,0.8,6,3,6,3V6c0,0-2.9-2.1-6-3
			C116.8,2.4,110.7,1.5,108,1.2L108,1.2L108,1.2z"/>
	</g>
	<g>
		<path class="st1" d="M123,45.8c0,0.6,0.6,1.1,1.2,1c1.2-0.2,3.1-0.6,4.8-0.8c2.4-0.3,14.5-0.8,18-1c0.5,0,1-0.5,1-1V6
			c0-0.6-0.5-1-1-1c-3.6,0.2-15.7,0.7-18,1c-2.7,0.3-6,1-6,1V45.8z"/>
	</g>
	<g>
		<path class="st2" d="M146,7.1v36c-5.1,0.2-15,0.7-17.2,0.9c-1.3,0.2-2.6,0.4-3.8,0.6V8.7c1.2-0.2,2.8-0.5,4.2-0.6
			C130.9,7.8,138.8,7.4,146,7.1 M147,5.1L147,5.1c-3.7,0.2-15.7,0.7-18,1c-2.7,0.3-6,1-6,1v38.8c0,0.6,0.5,1,1,1c0.1,0,0.1,0,0.2,0
			c1.2-0.2,3.1-0.6,4.8-0.8c2.4-0.3,14.5-0.8,18-1c0.5,0,1-0.5,1-1v-38C148,5.5,147.6,5.1,147,5.1L147,5.1z"/>
	</g>
	<g>
		<path class="st3" d="M123,46c0,0,2.8-2.2,6-3c2.6-0.7,8.9-1.6,11.1-1.9c0.5-0.1,0.9-0.5,0.9-1v-38c0-0.6-0.5-1.1-1.1-1
			c-2.6,0.4-8.7,1.2-10.9,1.8c-3.1,0.9-6,3-6,3V46z"/>
	</g>
	<g>
		<path class="st2" d="M139,3.3v35.9c-2.9,0.4-8.1,1.2-10.5,1.8c-1.3,0.3-2.5,0.8-3.5,1.4V7.1c1.1-0.7,2.9-1.7,4.5-2.1
			C131.3,4.5,136.3,3.7,139,3.3 M140,1.2h-0.1c-2.6,0.4-8.7,1.2-10.9,1.8c-3.1,0.9-6,3-6,3v40c0,0,2.8-2.2,6-3
			c2.6-0.7,8.9-1.6,11.1-1.9c0.5-0.1,0.9-0.5,0.9-1v-38C141,1.6,140.5,1.2,140,1.2L140,1.2z"/>
	</g>
</g>
<g>
	<polygon class="st1" points="212.8,47.1 212.8,37.1 202.8,37.1 	"/>
	<g id="Note_x40_2x.png">
		<g>
			<path class="st2" d="M244,0h-40c-1.1,0-2,0.9-2,2v36l10,10h32c1.1,0,2-0.9,2-2V2C246,0.9,245.1,0,244,0z M212,45l-7-7h7V45z
				 M244,46h-30v-9c0-0.6-0.4-1-1-1h-9V2h40V46z M213,13h19c0.6,0,1-0.4,1-1s-0.4-1-1-1h-19c-0.6,0-1,0.4-1,1S212.4,13,213,13z
				 M213,19h23c0.6,0,1-0.4,1-1s-0.4-1-1-1h-23c-0.6,0-1,0.4-1,1S212.4,19,213,19z M213,25h17c0.6,0,1-0.4,1-1s-0.4-1-1-1h-17
				c-0.6,0-1,0.4-1,1S212.4,25,213,25z"/>
		</g>
	</g>
	<g id="Checkmark_1_x40_2x.png">
		<g>
			<path class="st2" d="M237,31c0-0.6-0.4-1-1-1c-0.3,0-0.5,0.1-0.7,0.3l0,0l-6.3,7.3l-3.3-3.3c-0.2-0.2-0.4-0.3-0.7-0.3
				c-0.6,0-1,0.4-1,1c0,0.3,0.1,0.5,0.3,0.7l4,4c0.2,0.2,0.4,0.3,0.7,0.3s0.5-0.1,0.7-0.3l0,0l7-8l0,0C236.9,31.5,237,31.3,237,31z"
				/>
		</g>
	</g>
</g>
<g>
	<path class="st3" d="M8,46.7L8,46.7c-1.6,0-3-1.3-3-3v-3h5.9v3C10.9,45.4,9.6,46.7,8,46.7z"/>
	<path class="st3" d="M40,46.7L40,46.7c-1.6,0-3-1.3-3-3v-3h5.9v3C42.9,45.4,41.6,46.7,40,46.7z"/>
	<rect x="1" y="1" class="st1" width="46" height="26"/>
	<path class="st3" d="M35.9,7H12.3c-2.5,0-4.6,1.8-4.9,4.3L6,21h36.2l-1.4-9.7C40.4,8.8,38.3,7,35.9,7z"/>
	<polygon class="st3" points="6,21 43,21 43,25 45.4,28 46.1,37.6 45.6,40 44.5,41 3,41 2.1,39.7 3,27.5 5.1,25.3 	"/>
	<circle class="st1" cx="10" cy="31.2" r="3"/>
	<circle class="st1" cx="39" cy="31.2" r="3"/>
	<path class="st2" d="M43.9,42H4.5C2.1,42,1,40.7,1,38l1-10.7c0-0.2,0.1-0.5,0.3-0.6L4.2,25l1.6-13.2C6.3,8.4,9.1,6,12.6,6h23.1
		c3.5,0,6.3,2.4,6.7,5.7L44,25l1.9,1.7c0.2,0.2,0.3,0.4,0.3,0.7l0.7,9.5C47,41.1,45.3,42,43.9,42z M4,27.9L3,38.1
		C3,39.4,3.2,40,4.5,40h39.4c0.3,0,1.2,0,1.2-3l-0.7-9l-1.9-1.7c-0.2-0.2-0.3-0.4-0.3-0.6L40.4,12c-0.3-2.3-2.2-4-4.7-4H12.6
		c-2.5,0-4.4,1.6-4.7,4L6.2,25.5c0,0.2-0.1,0.5-0.3,0.6L4,27.9z"/>
	<path class="st2" d="M10,35c-2.2,0-4-1.8-4-4s1.8-4,4-4s4,1.8,4,4S12.2,35,10,35z M10,29c-1.1,0-2,0.9-2,2c0,1.1,0.9,2,2,2
		s2-0.9,2-2C12,29.9,11.1,29,10,29z"/>
	<path class="st2" d="M39,35c-2.2,0-4-1.8-4-4s1.8-4,4-4s4,1.8,4,4S41.2,35,39,35z M39,29c-1.1,0-2,0.9-2,2c0,1.1,0.9,2,2,2
		s2-0.9,2-2C41,29.9,40.1,29,39,29z"/>
	<path class="st2" d="M47,28h-2v-2h1V2H2v24h1v2H1c-0.6,0-1-0.4-1-1V1c0-0.6,0.4-1,1-1h46c0.6,0,1,0.4,1,1v26C48,27.6,47.6,28,47,28
		z"/>
	<path class="st2" d="M8,48c-2.2,0-4-1.8-4-4v-3h2v3c0,1.1,0.9,2,2,2s2-0.9,2-2v-3h2v3C12,46.2,10.2,48,8,48z"/>
	<path class="st2" d="M40,48c-2.2,0-4-1.8-4-4v-3h2v3c0,1.1,0.9,2,2,2s2-0.9,2-2v-3h2v3C44,46.2,42.2,48,40,48z"/>
	<rect x="6" y="20" class="st2" width="37" height="2"/>
	<path class="st2" d="M15,7c-0.6,0-1-0.4-1-1V2c0-0.6,0.4-1,1-1s1,0.4,1,1v4C16,6.6,15.6,7,15,7z"/>
	<path class="st2" d="M33,7c-0.6,0-1-0.4-1-1V2c0-0.6,0.4-1,1-1s1,0.4,1,1v4C34,6.6,33.6,7,33,7z"/>
	<path class="st2" d="M30.5,30h-12c-0.6,0-1-0.4-1-1l0,0c0-0.6,0.4-1,1-1h12c0.6,0,1,0.4,1,1l0,0C31.5,29.6,31.1,30,30.5,30z"/>
	<path class="st2" d="M27.5,34h-6c-0.6,0-1-0.4-1-1l0,0c0-0.6,0.4-1,1-1h6c0.6,0,1,0.4,1,1l0,0C28.5,33.6,28.1,34,27.5,34z"/>
</g>
<g>
	<path class="st3" d="M343,34h-38c-0.6,0-1-0.4-1-1V1c0-0.6,0.4-1,1-1h38c0.6,0,1,0.4,1,1v32C344,33.6,343.6,34,343,34z"/>
	<g>
		<path class="st2" d="M342,2v30h-36V2H342 M343,0h-38c-0.6,0-1,0.4-1,1v32c0,0.6,0.4,1,1,1h38c0.6,0,1-0.4,1-1V1
			C344,0.4,343.6,0,343,0L343,0z"/>
	</g>
	<polygon class="st1" points="331.2,13.4 336.5,27 312,27 320.4,18 325.8,21 	"/>
	<path class="st2" d="M336.9,28H312c-0.4,0-0.8-0.2-0.9-0.6c-0.2-0.4-0.1-0.8,0.2-1.1L320,17c0.3-0.4,0.9-0.4,1.3-0.2l4.4,2.9
		l4.5-7.7c0.2-0.3,0.6-0.5,0.9-0.5c0.4,0,0.7,0.3,0.9,0.6l5.9,14.3c0.1,0.3,0.1,0.7-0.1,0.9C337.6,27.8,337.3,28,336.9,28z
		 M314.3,26h21.1l-4.6-11.1l-4,6.8c-0.1,0.2-0.4,0.4-0.6,0.5c-0.3,0.1-0.6,0-0.8-0.1l-4.6-3.1L314.3,26z"/>
	<path class="st2" d="M315.3,10.5c-1.7,0-3-1.3-3-3s1.3-3,3-3s3,1.3,3,3S317,10.5,315.3,10.5z M315.3,6.5c-0.6,0-1,0.4-1,1
		s0.4,1,1,1s1-0.4,1-1C316.3,7,315.9,6.5,315.3,6.5z"/>
	<path class="st2" d="M328,40h-18c-0.6,0-1-0.4-1-1l0,0c0-0.6,0.4-1,1-1h18c0.6,0,1,0.4,1,1l0,0C329,39.6,328.6,40,328,40z"/>
	<path class="st2" d="M338,44h-28c-0.6,0-1-0.4-1-1l0,0c0-0.6,0.4-1,1-1h28c0.6,0,1,0.4,1,1l0,0C339,43.6,338.6,44,338,44z"/>
	<path class="st2" d="M335,48h-25c-0.6,0-1-0.4-1-1l0,0c0-0.6,0.4-1,1-1h25c0.6,0,1,0.4,1,1l0,0C336,47.6,335.6,48,335,48z"/>
</g>
<g>
	<path class="st3" d="M440,48h-32c-1.7,0-3-1.3-3-3V3c0-1.7,1.3-3,3-3h32c1.7,0,3,1.3,3,3v42C443,46.7,441.7,48,440,48z"/>
	<path class="st1" d="M414,48h-6c-1.7,0-3-1.3-3-3V3c0-1.7,1.3-3,3-3h6V48z"/>
	<g>
		<polygon class="st1" points="436,14 432,11 428,14 428,0 436,0 		"/>
	</g>
	<g>
		<path class="st2" d="M434,2v8l-0.8-0.6L432,8.5l-1.2,0.9L430,10V2H434 M436,0h-8v14l4-3l4,3V0L436,0z"/>
	</g>
	<g>
		<path class="st2" d="M440,2c0.6,0,1,0.4,1,1v42c0,0.6-0.4,1-1,1h-32c-0.6,0-1-0.4-1-1V3c0-0.6,0.4-1,1-1H440 M440,0h-32
			c-1.7,0-3,1.3-3,3v42c0,1.7,1.3,3,3,3h32c1.7,0,3-1.3,3-3V3C443,1.3,441.7,0,440,0L440,0z"/>
	</g>
	<rect x="413" y="0.5" class="st2" width="2" height="47"/>
	<path class="st1" d="M432.2,33.3c-1.1-1.1-3-1.1-4.1,0c-1.1-1.1-3-1.1-4.1,0s-1.2,2.9,0,4.1s2.3,1.6,4.1,4.1c1.8-2.6,3.1-3,4.1-4.1
		C433.2,36.4,433.3,34.5,432.2,33.3z"/>
	<g>
		<path class="st2" d="M430.1,34.5c0.1,0,0.4,0,0.7,0.3c0.2,0.2,0.2,0.5,0.2,0.6c0,0.2-0.1,0.5-0.2,0.6c-0.2,0.2-0.5,0.5-0.9,0.7
			c-0.5,0.4-1.2,0.9-1.9,1.7c-0.7-0.7-1.2-1.1-1.8-1.5c-0.4-0.3-0.7-0.5-1-0.8c-0.2-0.2-0.3-0.5-0.3-0.6c0-0.2,0.1-0.4,0.3-0.6
			c0.2-0.2,0.5-0.3,0.7-0.3c0.1,0,0.4,0,0.7,0.3l1.4,1.4l1.4-1.4C429.7,34.5,429.9,34.5,430.1,34.5 M430.1,32.5
			c-0.8,0-1.5,0.3-2.1,0.8c-0.6-0.6-1.3-0.8-2.1-0.8c-0.8,0-1.5,0.3-2.1,0.8c-1.1,1.1-1.2,2.9,0,4.1c1.2,1.2,2.3,1.6,4.1,4.1
			c1.8-2.6,3.1-3,4.1-4.1c1.1-1.1,1.1-3,0-4.1C431.6,32.8,430.8,32.5,430.1,32.5L430.1,32.5z"/>
	</g>
</g>
<path class="st4" d="M5.5,113.2v-4.7H3.6c0-0.1,0-0.1,0-0.2s0-0.2,0-0.2c0-1.8,1.1-2.9,3.2-3.3l-0.5-1.9c-1.9,0.1-3.4,0.7-4.4,1.6
	c-1,1-1.4,2.4-1.4,4.4v4.3C0.5,113.2,5.5,113.2,5.5,113.2z M14.2,113.2v-4.7h-1.9v-0.4c0-1.9,1.1-3,3.2-3.4l-0.5-1.9
	c-1.9,0.1-3.4,0.7-4.4,1.7s-1.4,2.4-1.4,4.4v4.3H14.2z"/>
<rect x="100" y="100" class="st0" width="16" height="16"/>
<path class="st4" d="M110.5,102.8v4.7h1.9c0,0.1,0,0.1,0,0.2s0,0.2,0,0.2c0,1.8-1.1,2.9-3.2,3.3l0.5,1.9c1.9-0.1,3.4-0.7,4.4-1.6
	c1-1,1.4-2.4,1.4-4.4v-4.3C115.5,102.8,110.5,102.8,110.5,102.8z M101.8,102.8v4.7h1.9v0.4c0,1.9-1.1,3-3.2,3.4l0.5,1.9
	c1.9-0.1,3.4-0.7,4.4-1.7s1.4-2.4,1.4-4.4v-4.3H101.8z"/>
<rect y="200" class="st0" width="16" height="16"/>
<path class="st3" d="M5.5,213.2v-4.7H3.6c0-0.1,0-0.1,0-0.2c0-0.1,0-0.2,0-0.2c0-1.8,1.1-2.9,3.2-3.3l-0.5-1.9
	c-1.9,0.1-3.4,0.7-4.4,1.6c-1,1-1.4,2.4-1.4,4.4v4.3L5.5,213.2L5.5,213.2z M14.2,213.2v-4.7h-1.9v-0.4c0-1.9,1.1-3,3.2-3.4l-0.5-1.9
	c-1.9,0.1-3.4,0.7-4.4,1.7s-1.4,2.4-1.4,4.4v4.3L14.2,213.2L14.2,213.2z"/>
<rect x="100" y="200" class="st0" width="16" height="16"/>
<path class="st3" d="M110.5,202.8v4.7h1.9c0,0.1,0,0.1,0,0.2c0,0.1,0,0.2,0,0.2c0,1.8-1.1,2.9-3.2,3.3l0.5,1.9
	c1.9-0.1,3.4-0.7,4.4-1.6c1-1,1.4-2.4,1.4-4.4v-4.3L110.5,202.8L110.5,202.8z M101.8,202.8v4.7h1.9v0.4c0,1.9-1.1,3-3.2,3.4l0.5,1.9
	c1.9-0.1,3.4-0.7,4.4-1.7s1.4-2.4,1.4-4.4v-4.3L101.8,202.8L101.8,202.8z"/>
<g>
	<path class="st5" d="M203.3,106.8l3.9,3.9c0.4,0.4,0.4,1.1,0,1.5s-1.1,0.4-1.5,0l-3.9-3.9c-0.4-0.4-0.4-1.1,0-1.5
		S202.9,106.4,203.3,106.8z"/>
	<path class="st5" d="M205.8,110.7l6.9-6.9c0.4-0.4,1.1-0.4,1.5,0s0.4,1.1,0,1.5l-6.9,6.9c-0.4,0.4-1.1,0.4-1.5,0
		C205.4,111.8,205.4,111.1,205.8,110.7z"/>
</g>
<g>
	<path class="st6" d="M301.8,106.8l4.9,4.9c0.4,0.4,0.4,1.1,0,1.5s-1.1,0.4-1.5,0l-4.9-4.9c-0.4-0.4-0.4-1.1,0-1.5
		C300.7,106.4,301.4,106.4,301.8,106.8z"/>
	<path class="st6" d="M305.3,111.7l8.9-8.9c0.4-0.4,1.1-0.4,1.5,0s0.4,1.1,0,1.5l-8.9,8.9c-0.4,0.4-1.1,0.4-1.5,0
		C304.9,112.8,304.9,112.1,305.3,111.7z"/>
</g>
<g>
	<path class="st7" d="M404.3,102.8l8.9,8.9c0.4,0.4,0.4,1.1,0,1.5s-1.1,0.4-1.5,0l-8.9-8.9c-0.4-0.4-0.4-1.1,0-1.5
		C403.2,102.4,403.9,102.4,404.3,102.8z"/>
	<path class="st7" d="M402.8,111.7l8.9-8.9c0.4-0.4,1.1-0.4,1.5,0s0.4,1.1,0,1.5l-8.9,8.9c-0.4,0.4-1.1,0.4-1.5,0
		C402.4,112.8,402.4,112.1,402.8,111.7z"/>
</g>
<g>
	<path class="st8" d="M502.8,101.3l11.9,11.9c0.4,0.4,0.4,1.1,0,1.5s-1.1,0.4-1.5,0l-11.9-11.9c-0.4-0.4-0.4-1.1,0-1.5
		S502.4,100.9,502.8,101.3z"/>
	<path class="st8" d="M501.3,113.2l11.9-11.9c0.4-0.4,1.1-0.4,1.5,0s0.4,1.1,0,1.5l-11.9,11.9c-0.4,0.4-1.1,0.4-1.5,0
		C500.9,114.3,500.9,113.6,501.3,113.2z"/>
</g>
<rect x="500" y="200" class="st0" width="16" height="16"/>
<g>
	<path class="st7" d="M502.8,201.3l11.9,11.9c0.4,0.4,0.4,1.1,0,1.5c-0.4,0.4-1.1,0.4-1.5,0l-11.9-11.9c-0.4-0.4-0.4-1.1,0-1.5
		S502.4,200.9,502.8,201.3z"/>
	<path class="st7" d="M501.3,213.2l11.9-11.9c0.4-0.4,1.1-0.4,1.5,0c0.4,0.4,0.4,1.1,0,1.5l-11.9,11.9c-0.4,0.4-1.1,0.4-1.5,0
		C500.9,214.3,500.9,213.6,501.3,213.2z"/>
</g>
</svg>
