<svg id="Слой_1" xmlns="http://www.w3.org/2000/svg" viewBox="0 0 1000 1000"><style>.st0{fill:none}.st1{fill:#f7dfef}.st2{fill:#fc63c5}.st3{fill:#fff}.st4{fill:#ff07a6}.st5{fill:#60369e}.st6{fill:#4ab55c}.st7{fill:#e78386}.st8{fill:#cdcfd0}</style><path class="st0" d="M500 100h16v16h-16zm-100 0h16v16h-16zm-100 0h16v16h-16zm-100 0h16v16h-16zM0 100h16v16H0zM300 0h48v48h-48zM200 0h48v48h-48zM100 0h48v48h-48zM0 0h48v48H0zm400 0h48v48h-48z"/><path class="st1" d="M125 45.8c0 .6-.6 1.1-1.2 1-1.2-.2-3.1-.6-4.8-.8-2.4-.3-14.5-.8-18-1-.5 0-1-.5-1-1V6c0-.6.5-1 1-1 3.6.2 15.7.7 18 1 2.7.3 6 1 6 1v38.8z"/><path class="st2" d="M102 7.1c7.2.3 15.1.7 16.8.9 1.4.1 3 .4 4.2.6v35.9c-1.1-.2-2.5-.4-3.8-.6-2.3-.3-12.2-.7-17.2-.9V7.1m-1-2c-.5 0-1 .4-1 1v38c0 .5.4 1 1 1 3.5.1 15.6.7 18 1 1.8.2 3.6.5 4.8.8h.2c.5 0 1-.4 1-1V7s-3.3-.7-6-1c-2.3-.2-14.3-.8-18-.9z"/><path class="st3" d="M125 46s-2.8-2.2-6-3c-2.6-.7-8.9-1.6-11.1-1.9-.5-.1-.9-.5-.9-1v-38c0-.6.5-1.1 1.1-1 2.6.4 8.7 1.2 10.9 1.8 3.1.9 6 3 6 3V46z"/><path class="st2" d="M109 3.3c2.7.4 7.7 1.1 9.5 1.6S122 6.4 123 7v35.3c-1-.5-2.2-1-3.5-1.4-2.4-.6-7.6-1.4-10.5-1.8V3.3m-1-2.1c-.5 0-1 .4-1 1v38c0 .5.4.9.9 1 2.3.3 8.6 1.2 11.1 1.9 3.2.8 6 3 6 3V6s-2.9-2.1-6-3c-2.2-.6-8.3-1.5-11-1.8z"/><path class="st1" d="M123 45.8c0 .6.6 1.1 1.2 1 1.2-.2 3.1-.6 4.8-.8 2.4-.3 14.5-.8 18-1 .5 0 1-.5 1-1V6c0-.6-.5-1-1-1-3.6.2-15.7.7-18 1-2.7.3-6 1-6 1v38.8z"/><path class="st2" d="M146 7.1v36c-5.1.2-15 .7-17.2.9-1.3.2-2.6.4-3.8.6V8.7c1.2-.2 2.8-.5 4.2-.6 1.7-.3 9.6-.7 16.8-1m1-2c-3.7.2-15.7.7-18 1-2.7.3-6 1-6 1v38.8c0 .6.5 1 1 1h.2c1.2-.2 3.1-.6 4.8-.8 2.4-.3 14.5-.8 18-1 .5 0 1-.5 1-1v-38c0-.6-.4-1-1-1z"/><path class="st3" d="M123 46s2.8-2.2 6-3c2.6-.7 8.9-1.6 11.1-1.9.5-.1.9-.5.9-1v-38c0-.6-.5-1.1-1.1-1-2.6.4-8.7 1.2-10.9 1.8-3.1.9-6 3-6 3V46z"/><path class="st2" d="M139 3.3v35.9c-2.9.4-8.1 1.2-10.5 1.8-1.3.3-2.5.8-3.5 1.4V7.1c1.1-.7 2.9-1.7 4.5-2.1 1.8-.5 6.8-1.3 9.5-1.7m1-2.1h-.1c-2.6.4-8.7 1.2-10.9 1.8-3.1.9-6 3-6 3v40s2.8-2.2 6-3c2.6-.7 8.9-1.6 11.1-1.9.5-.1.9-.5.9-1v-38c0-.5-.5-.9-1-.9z"/><path class="st1" d="M212.8 47.1v-10h-10z"/><path class="st2" d="M244 0h-40c-1.1 0-2 .9-2 2v36l10 10h32c1.1 0 2-.9 2-2V2c0-1.1-.9-2-2-2zm-32 45l-7-7h7v7zm32 1h-30v-9c0-.6-.4-1-1-1h-9V2h40v44zm-31-33h19c.6 0 1-.4 1-1s-.4-1-1-1h-19c-.6 0-1 .4-1 1s.4 1 1 1zm0 6h23c.6 0 1-.4 1-1s-.4-1-1-1h-23c-.6 0-1 .4-1 1s.4 1 1 1zm0 6h17c.6 0 1-.4 1-1s-.4-1-1-1h-17c-.6 0-1 .4-1 1s.4 1 1 1z" id="Note_x40_2x.png"/><path class="st2" d="M237 31c0-.6-.4-1-1-1-.3 0-.5.1-.7.3l-6.3 7.3-3.3-3.3c-.2-.2-.4-.3-.7-.3-.6 0-1 .4-1 1 0 .3.1.5.3.7l4 4c.2.2.4.3.7.3s.5-.1.7-.3l7-8c.2-.2.3-.4.3-.7z" id="Checkmark_1_x40_2x.png"/><path class="st3" d="M8 46.7c-1.6 0-3-1.3-3-3v-3h5.9v3c0 1.7-1.3 3-2.9 3zm32 0c-1.6 0-3-1.3-3-3v-3h5.9v3c0 1.7-1.3 3-2.9 3z"/><path class="st1" d="M1 1h46v26H1z"/><path class="st3" d="M35.9 7H12.3c-2.5 0-4.6 1.8-4.9 4.3L6 21h36.2l-1.4-9.7C40.4 8.8 38.3 7 35.9 7zM6 21h37v4l2.4 3 .7 9.6-.5 2.4-1.1 1H3l-.9-1.3.9-12.2 2.1-2.2z"/><circle class="st1" cx="10" cy="31.2" r="3"/><circle class="st1" cx="39" cy="31.2" r="3"/><path class="st2" d="M43.9 42H4.5C2.1 42 1 40.7 1 38l1-10.7c0-.2.1-.5.3-.6L4.2 25l1.6-13.2C6.3 8.4 9.1 6 12.6 6h23.1c3.5 0 6.3 2.4 6.7 5.7L44 25l1.9 1.7c.2.2.3.4.3.7l.7 9.5c.1 4.2-1.6 5.1-3 5.1zM4 27.9L3 38.1c0 1.3.2 1.9 1.5 1.9h39.4c.3 0 1.2 0 1.2-3l-.7-9-1.9-1.7c-.2-.2-.3-.4-.3-.6L40.4 12c-.3-2.3-2.2-4-4.7-4H12.6c-2.5 0-4.4 1.6-4.7 4L6.2 25.5c0 .2-.1.5-.3.6L4 27.9z"/><path class="st2" d="M10 35c-2.2 0-4-1.8-4-4s1.8-4 4-4 4 1.8 4 4-1.8 4-4 4zm0-6c-1.1 0-2 .9-2 2s.9 2 2 2 2-.9 2-2-.9-2-2-2zm29 6c-2.2 0-4-1.8-4-4s1.8-4 4-4 4 1.8 4 4-1.8 4-4 4zm0-6c-1.1 0-2 .9-2 2s.9 2 2 2 2-.9 2-2-.9-2-2-2z"/><path class="st2" d="M47 28h-2v-2h1V2H2v24h1v2H1c-.6 0-1-.4-1-1V1c0-.6.4-1 1-1h46c.6 0 1 .4 1 1v26c0 .6-.4 1-1 1zM8 48c-2.2 0-4-1.8-4-4v-3h2v3c0 1.1.9 2 2 2s2-.9 2-2v-3h2v3c0 2.2-1.8 4-4 4zm32 0c-2.2 0-4-1.8-4-4v-3h2v3c0 1.1.9 2 2 2s2-.9 2-2v-3h2v3c0 2.2-1.8 4-4 4z"/><path class="st2" d="M6 20h37v2H6zm9-13c-.6 0-1-.4-1-1V2c0-.6.4-1 1-1s1 .4 1 1v4c0 .6-.4 1-1 1zm18 0c-.6 0-1-.4-1-1V2c0-.6.4-1 1-1s1 .4 1 1v4c0 .6-.4 1-1 1zm-2.5 23h-12c-.6 0-1-.4-1-1s.4-1 1-1h12c.6 0 1 .4 1 1s-.4 1-1 1zm-3 4h-6c-.6 0-1-.4-1-1s.4-1 1-1h6c.6 0 1 .4 1 1s-.4 1-1 1z"/><path class="st3" d="M343 34h-38c-.6 0-1-.4-1-1V1c0-.6.4-1 1-1h38c.6 0 1 .4 1 1v32c0 .6-.4 1-1 1z"/><path class="st2" d="M342 2v30h-36V2h36m1-2h-38c-.6 0-1 .4-1 1v32c0 .6.4 1 1 1h38c.6 0 1-.4 1-1V1c0-.6-.4-1-1-1z"/><path class="st1" d="M331.2 13.4l5.3 13.6H312l8.4-9 5.4 3z"/><path class="st2" d="M336.9 28H312c-.4 0-.8-.2-.9-.6-.2-.4-.1-.8.2-1.1L320 17c.3-.4.9-.4 1.3-.2l4.4 2.9 4.5-7.7c.2-.3.6-.5.9-.5.4 0 .7.3.9.6l5.9 14.3c.1.3.1.7-.1.9-.2.5-.5.7-.9.7zm-22.6-2h21.1l-4.6-11.1-4 6.8c-.1.2-.4.4-.6.5-.3.1-.6 0-.8-.1l-4.6-3.1-6.5 7zm1-15.5c-1.7 0-3-1.3-3-3s1.3-3 3-3 3 1.3 3 3-1.3 3-3 3zm0-4c-.6 0-1 .4-1 1s.4 1 1 1 1-.4 1-1c0-.5-.4-1-1-1zM328 40h-18c-.6 0-1-.4-1-1s.4-1 1-1h18c.6 0 1 .4 1 1s-.4 1-1 1zm10 4h-28c-.6 0-1-.4-1-1s.4-1 1-1h28c.6 0 1 .4 1 1s-.4 1-1 1zm-3 4h-25c-.6 0-1-.4-1-1s.4-1 1-1h25c.6 0 1 .4 1 1s-.4 1-1 1z"/><path class="st3" d="M440 48h-32c-1.7 0-3-1.3-3-3V3c0-1.7 1.3-3 3-3h32c1.7 0 3 1.3 3 3v42c0 1.7-1.3 3-3 3z"/><path class="st1" d="M414 48h-6c-1.7 0-3-1.3-3-3V3c0-1.7 1.3-3 3-3h6v48zm22-34l-4-3-4 3V0h8z"/><path class="st2" d="M434 2v8l-.8-.6-1.2-.9-1.2.9-.8.6V2h4m2-2h-8v14l4-3 4 3V0z"/><path class="st2" d="M440 2c.6 0 1 .4 1 1v42c0 .6-.4 1-1 1h-32c-.6 0-1-.4-1-1V3c0-.6.4-1 1-1h32m0-2h-32c-1.7 0-3 1.3-3 3v42c0 1.7 1.3 3 3 3h32c1.7 0 3-1.3 3-3V3c0-1.7-1.3-3-3-3z"/><path class="st2" d="M413 .5h2v47h-2z"/><path class="st1" d="M432.2 33.3c-1.1-1.1-3-1.1-4.1 0-1.1-1.1-3-1.1-4.1 0s-1.2 2.9 0 4.1 2.3 1.6 4.1 4.1c1.8-2.6 3.1-3 4.1-4.1 1-1 1.1-2.9 0-4.1z"/><path class="st2" d="M430.1 34.5c.1 0 .4 0 .7.3.2.2.2.5.2.6 0 .2-.1.5-.2.6-.2.2-.5.5-.9.7-.5.4-1.2.9-1.9 1.7-.7-.7-1.2-1.1-1.8-1.5-.4-.3-.7-.5-1-.8-.2-.2-.3-.5-.3-.6 0-.2.1-.4.3-.6.2-.2.5-.3.7-.3.1 0 .4 0 .7.3l1.4 1.4 1.4-1.4c.3-.4.5-.4.7-.4m0-2c-.8 0-1.5.3-2.1.8-.6-.6-1.3-.8-2.1-.8s-1.5.3-2.1.8c-1.1 1.1-1.2 2.9 0 4.1 1.2 1.2 2.3 1.6 4.1 4.1 1.8-2.6 3.1-3 4.1-4.1 1.1-1.1 1.1-3 0-4.1-.4-.5-1.2-.8-1.9-.8z"/><path class="st4" d="M5.5 113.2v-4.7H3.6v-.4c0-1.8 1.1-2.9 3.2-3.3l-.5-1.9c-1.9.1-3.4.7-4.4 1.6-1 1-1.4 2.4-1.4 4.4v4.3h5zm8.7 0v-4.7h-1.9v-.4c0-1.9 1.1-3 3.2-3.4l-.5-1.9c-1.9.1-3.4.7-4.4 1.7s-1.4 2.4-1.4 4.4v4.3h5z"/><path class="st0" d="M100 100h16v16h-16z"/><path class="st4" d="M110.5 102.8v4.7h1.9v.4c0 1.8-1.1 2.9-3.2 3.3l.5 1.9c1.9-.1 3.4-.7 4.4-1.6 1-1 1.4-2.4 1.4-4.4v-4.3h-5zm-8.7 0v4.7h1.9v.4c0 1.9-1.1 3-3.2 3.4l.5 1.9c1.9-.1 3.4-.7 4.4-1.7s1.4-2.4 1.4-4.4v-4.3h-5z"/><path class="st0" d="M0 200h16v16H0z"/><path class="st3" d="M5.5 213.2v-4.7H3.6v-.4c0-1.8 1.1-2.9 3.2-3.3l-.5-1.9c-1.9.1-3.4.7-4.4 1.6-1 1-1.4 2.4-1.4 4.4v4.3h5zm8.7 0v-4.7h-1.9v-.4c0-1.9 1.1-3 3.2-3.4l-.5-1.9c-1.9.1-3.4.7-4.4 1.7s-1.4 2.4-1.4 4.4v4.3h5z"/><path class="st0" d="M100 200h16v16h-16z"/><path class="st3" d="M110.5 202.8v4.7h1.9v.4c0 1.8-1.1 2.9-3.2 3.3l.5 1.9c1.9-.1 3.4-.7 4.4-1.6 1-1 1.4-2.4 1.4-4.4v-4.3h-5zm-8.7 0v4.7h1.9v.4c0 1.9-1.1 3-3.2 3.4l.5 1.9c1.9-.1 3.4-.7 4.4-1.7s1.4-2.4 1.4-4.4v-4.3h-5z"/><path class="st5" d="M203.3 106.8l3.9 3.9c.4.4.4 1.1 0 1.5s-1.1.4-1.5 0l-3.9-3.9c-.4-.4-.4-1.1 0-1.5s1.1-.4 1.5 0z"/><path class="st5" d="M205.8 110.7l6.9-6.9c.4-.4 1.1-.4 1.5 0s.4 1.1 0 1.5l-6.9 6.9c-.4.4-1.1.4-1.5 0-.4-.4-.4-1.1 0-1.5z"/><path class="st6" d="M301.8 106.8l4.9 4.9c.4.4.4 1.1 0 1.5s-1.1.4-1.5 0l-4.9-4.9c-.4-.4-.4-1.1 0-1.5.4-.4 1.1-.4 1.5 0z"/><path class="st6" d="M305.3 111.7l8.9-8.9c.4-.4 1.1-.4 1.5 0s.4 1.1 0 1.5l-8.9 8.9c-.4.4-1.1.4-1.5 0-.4-.4-.4-1.1 0-1.5z"/><path class="st7" d="M404.3 102.8l8.9 8.9c.4.4.4 1.1 0 1.5s-1.1.4-1.5 0l-8.9-8.9c-.4-.4-.4-1.1 0-1.5.4-.4 1.1-.4 1.5 0z"/><path class="st7" d="M402.8 111.7l8.9-8.9c.4-.4 1.1-.4 1.5 0s.4 1.1 0 1.5l-8.9 8.9c-.4.4-1.1.4-1.5 0-.4-.4-.4-1.1 0-1.5z"/><path class="st8" d="M502.8 101.3l11.9 11.9c.4.4.4 1.1 0 1.5s-1.1.4-1.5 0l-11.9-11.9c-.4-.4-.4-1.1 0-1.5s1.1-.4 1.5 0z"/><path class="st8" d="M501.3 113.2l11.9-11.9c.4-.4 1.1-.4 1.5 0s.4 1.1 0 1.5l-11.9 11.9c-.4.4-1.1.4-1.5 0-.4-.4-.4-1.1 0-1.5z"/><path class="st0" d="M500 200h16v16h-16z"/><path class="st7" d="M502.8 201.3l11.9 11.9c.4.4.4 1.1 0 1.5-.4.4-1.1.4-1.5 0l-11.9-11.9c-.4-.4-.4-1.1 0-1.5s1.1-.4 1.5 0z"/><path class="st7" d="M501.3 213.2l11.9-11.9c.4-.4 1.1-.4 1.5 0 .4.4.4 1.1 0 1.5l-11.9 11.9c-.4.4-1.1.4-1.5 0-.4-.4-.4-1.1 0-1.5z"/></svg>