<svg style="display: none" xmlns="http://www.w3.org/2000/svg">

<symbol id="phone" viewBox="0 0 30 30">
<path d="M15.0001 0C6.71635 0 0 6.71632 0 15C0 23.2836 6.71635 30 15.0001 30C23.2838 30 30 23.2835 30 15C30.0001 6.71632 23.2838 0 15.0001 0ZM22.9211 21.8867L21.7201 23.0879C21.5056 23.302 20.8778 23.4357 20.8576 23.4357C17.0581 23.4688 13.3997 21.9764 10.7118 19.2882C8.01649 16.5913 6.52233 12.92 6.56246 9.10767C6.56246 9.10594 6.69997 8.49606 6.9142 8.28386L8.11517 7.08272C8.55465 6.6412 9.39886 6.44168 9.99025 6.63953L10.2429 6.7238C10.8325 6.92147 11.4516 7.57345 11.6146 8.17412L12.2187 10.3914C12.3816 10.9938 12.1619 11.8508 11.7225 12.2903L10.9206 13.0923C11.7079 16.0071 13.9949 18.2945 16.9101 19.0837L17.7118 18.2815C18.1533 17.84 19.01 17.6204 19.6111 17.7831L21.8281 18.3894C22.4289 18.5545 23.0807 19.1697 23.2783 19.7591L23.3626 20.0154C23.5585 20.6051 23.3605 21.4492 22.9211 21.8867Z"/>
</symbol>

<symbol id="viber" viewBox="0 0 11 11">
<path d="M5.91918 1.23117C5.91927 1.23117 5.91927 1.23117 5.91943 1.23117C6.93857 1.23117 7.89673 1.61754 8.61741 2.31902C9.33818 3.02059 9.73513 3.95338 9.73504 4.94553C9.73504 5.28552 10.0181 5.56115 10.3674 5.56115C10.3675 5.56115 10.3675 5.56115 10.3675 5.56115C10.7168 5.56115 11 5.2856 11 4.94561C11.0001 3.62456 10.4716 2.38255 9.5119 1.44844C8.55231 0.514335 7.27656 0 5.91943 0C5.91935 0 5.9191 0 5.91901 0C5.56972 0 5.28662 0.275636 5.28662 0.615626C5.28671 0.955533 5.56989 1.23117 5.91918 1.23117Z"/>
<path d="M5.91901 3.39605C6.79672 3.39621 7.51092 4.09129 7.511 4.94554C7.51108 5.28553 7.79418 5.56116 8.14356 5.56108C8.49294 5.56108 8.77604 5.28536 8.77595 4.94537C8.7757 3.41238 7.49422 2.16504 5.91918 2.16479H5.9191C5.5698 2.16479 5.28671 2.44035 5.28662 2.78034C5.28662 3.12033 5.56972 3.39605 5.91901 3.39605Z"/>
<path d="M3.08288 4.45086C2.79456 4.64277 2.7206 5.02586 2.91768 5.3065C3.11476 5.58714 3.50841 5.65905 3.79674 5.46722C4.0235 5.31635 4.55461 4.9629 4.51734 4.25632C4.49373 3.83343 4.10184 3.22962 3.77726 2.79754C3.30248 2.16533 2.89331 1.78455 2.56366 1.66651C2.25586 1.55496 1.93397 1.55258 1.60626 1.65961C0.927486 1.88222 0.43466 2.28452 0.181163 2.82298C-0.0656711 3.34717 -0.0601897 3.94958 0.197102 4.56545C0.804785 6.01652 1.65551 7.28693 2.73131 8.34679C3.81453 9.38834 5.11963 10.2164 6.61101 10.8082C6.93374 10.936 7.25301 11 7.55989 11C7.8542 11 8.13713 10.9412 8.40075 10.8236C8.95395 10.5767 9.36717 10.0971 9.59613 9.43562C9.70576 9.11739 9.70331 8.80424 9.58963 8.50669C9.46752 8.18352 9.07623 7.78534 8.4268 7.32321C7.98281 7.00727 7.36247 6.62583 6.92632 6.60276C6.20192 6.5673 5.83913 7.08336 5.68413 7.30408C5.48697 7.58473 5.56076 7.96781 5.84908 8.1598C6.13749 8.35179 6.53098 8.27989 6.72823 7.99925C6.79704 7.90132 6.83634 7.85683 6.85885 7.83738C7.21388 7.94811 8.22627 8.67208 8.40851 8.94953C8.41298 8.96726 8.41399 8.99426 8.39712 9.04343C8.31734 9.274 8.16175 9.57582 7.87377 9.70437C7.60399 9.82454 7.29745 9.75083 7.08815 9.668C5.75177 9.13766 4.58506 8.3985 3.62572 7.47613C2.6727 6.53718 1.91331 5.40155 1.36879 4.10127C1.28344 3.89705 1.20763 3.59851 1.33117 3.33617C1.46315 3.05585 1.77332 2.90433 2.00944 2.82684C2.05987 2.81042 2.08762 2.81133 2.10684 2.81584C2.39196 2.99355 3.13534 3.97839 3.24918 4.32404C3.22911 4.34563 3.18349 4.38396 3.08288 4.45086Z"/>
</symbol>

<symbol id="whatsapp" viewBox="0 0 13 13">
<path d="M13 6.33317C13 9.82855 10.1438 12.6669 6.61972 12.6669C5.50227 12.6669 4.44979 12.3787 3.53546 11.8793L0 13L1.15375 9.6005C0.570905 8.64718 0.235632 7.52864 0.235632 6.33371C0.235632 2.83672 3.09291 0 6.61969 0C10.1438 0 13 2.83672 13 6.33317ZM6.61969 1.00859C3.66166 1.00859 1.25233 3.39572 1.25233 6.33371C1.25233 7.50045 1.63257 8.57946 2.27392 9.45695L1.60549 11.4292L3.66762 10.7775C4.51371 11.3344 5.52878 11.6556 6.61969 11.6556C9.57557 11.6556 11.9844 9.26738 11.9844 6.32939C11.9844 3.39626 9.57557 1.00859 6.61969 1.00859ZM9.83992 7.79241C9.80199 7.72904 9.698 7.69057 9.54363 7.60716C9.38276 7.5297 8.61684 7.15865 8.46951 7.10773C8.32923 7.05572 8.22521 7.03027 8.12122 7.18464C8.01233 7.33793 7.71605 7.69111 7.62559 7.79239C7.52919 7.89529 7.43925 7.90831 7.28434 7.8314C7.1316 7.75503 6.62459 7.59036 6.02821 7.05953C5.56453 6.65058 5.24875 6.14302 5.15829 5.98541C5.06512 5.82887 5.14747 5.74546 5.22547 5.66909C5.29861 5.59867 5.38256 5.48601 5.46002 5.3961C5.54074 5.30674 5.56619 5.24282 5.61765 5.13989C5.66966 5.03372 5.6431 4.94436 5.60466 4.86418C5.56618 4.78673 5.25095 4.02461 5.12203 3.71316C4.99041 3.40279 4.86258 3.45425 4.7721 3.45425C4.67784 3.45425 4.57603 3.44126 4.46986 3.44126C4.36695 3.44126 4.19687 3.47918 4.05169 3.63679C3.91032 3.79061 3.5046 4.16599 3.5046 4.93082C3.5046 5.69348 4.06469 6.43449 4.14486 6.53631C4.22286 6.63921 5.22547 8.25446 6.81745 8.87632C8.40726 9.49814 8.40725 9.29285 8.6965 9.26686C8.9787 9.24087 9.62274 8.88986 9.75167 8.5302C9.87836 8.16453 9.87836 7.85688 9.83992 7.79241Z"/>
</symbol>

<symbol id="mail" viewBox="0 0 13 11">
<path d="M12.659 0.367165C12.4318 0.122343 12.1584 0 11.8393 0H1.16074C0.841551 0 0.56825 0.122343 0.34094 0.367165C0.113604 0.611932 0 0.906227 0 1.25002V9.75006C0 10.0939 0.113604 10.388 0.34094 10.6327C0.568224 10.8777 0.841525 11 1.16074 11H11.8393C12.1585 11 12.4318 10.8777 12.6591 10.6327C12.8864 10.388 13 10.0937 13 9.75006V1.25002C13 0.906227 12.8864 0.611932 12.659 0.367165ZM12.0713 9.74987C12.0713 9.81759 12.0484 9.87618 12.0024 9.92565C11.9564 9.97518 11.902 9.9997 11.8392 9.9997H1.16066C1.0978 9.9997 1.04338 9.97518 0.997461 9.92565C0.951496 9.87618 0.928551 9.81759 0.928551 9.74987V3.74993C1.08329 3.93743 1.25015 4.10933 1.42911 4.26555C2.72528 5.33845 3.75539 6.21859 4.51955 6.90613C4.76619 7.13013 4.96693 7.30457 5.12167 7.4296C5.27641 7.55468 5.48558 7.68093 5.74912 7.80847C6.01269 7.93621 6.26058 7.99977 6.49272 7.99977H6.50001H6.50723C6.73932 7.99977 6.98731 7.93621 7.25078 7.80847C7.51442 7.68093 7.72372 7.5547 7.87841 7.4296C8.03312 7.30457 8.23388 7.13013 8.48055 6.90613C9.24471 6.21859 10.2747 5.33845 11.5709 4.26555C11.7499 4.10935 11.9168 3.93743 12.0713 3.74993V9.74987ZM12.0713 1.45309V1.53901C12.0713 1.84628 11.959 2.18876 11.7341 2.56632C11.5092 2.94388 11.2661 3.24472 11.0051 3.46861C10.0716 4.2604 9.10204 5.08582 8.09588 5.94518C8.06692 5.9712 7.9822 6.04798 7.84189 6.17552C7.70179 6.30326 7.5905 6.40103 7.50825 6.46864C7.4259 6.53645 7.31842 6.61846 7.18547 6.71472C7.05243 6.81099 6.93034 6.88274 6.81913 6.92956C6.70791 6.97627 6.60391 6.99966 6.50723 6.99966H6.50001H6.49272C6.39601 6.99966 6.29211 6.97627 6.18082 6.92956C6.06961 6.88274 5.94744 6.81099 5.8145 6.71472C5.68158 6.61843 5.57395 6.53642 5.49173 6.46864C5.40955 6.40103 5.29826 6.30326 5.15805 6.17552C5.0178 6.04798 4.93308 5.9712 4.90409 5.94518C3.89817 5.0858 2.92853 4.2604 1.99507 3.46861C1.2841 2.86453 0.928678 2.12489 0.928678 1.24989C0.928678 1.18224 0.951623 1.1236 0.997588 1.07419C1.04355 1.02468 1.09793 0.99992 1.16079 0.99992H11.8394C11.878 1.02332 11.9119 1.02983 11.9409 1.01949C11.97 1.00895 11.9917 1.02854 12.0061 1.07799C12.0207 1.12749 12.034 1.15089 12.046 1.14831C12.0582 1.14569 12.0655 1.17822 12.0679 1.24603C12.0701 1.3137 12.0713 1.34777 12.0713 1.34777V1.45309H12.0713Z"/>
</symbol>

<symbol id="arrowDown" viewBox="0 0 11 7">
<path d="M1 1L5.5 5.5L10 1" stroke="#009FC3"/>
</symbol>

<symbol id="basket" viewBox="0 0 16 15">
<path d="M0.591912 1.22283H2.28871L4.7057 10.2513C4.77474 10.5163 5.01151 10.6997 5.27787 10.6997H12.7064C12.9431 10.6997 13.1503 10.557 13.2489 10.3329L15.952 3.91304C16.0309 3.71944 16.0112 3.50544 15.9027 3.3322C15.7941 3.15895 15.6067 3.05706 15.4094 3.05706H7.20158C6.87603 3.05706 6.60967 3.3322 6.60967 3.66848C6.60967 4.00475 6.87603 4.27989 7.20158 4.27989H14.5018L12.3118 9.47689H5.7218L3.30485 0.448381C3.23581 0.183424 2.99904 0 2.73268 0H0.591912C0.26636 0 0 0.275136 0 0.611412C0 0.947689 0.26636 1.22283 0.591912 1.22283Z"/>
<path d="M4.71553 15C5.45542 15 6.05718 14.3784 6.05718 13.6141C6.05718 12.8499 5.45542 12.2283 4.71553 12.2283C3.97564 12.2283 3.37387 12.8498 3.37387 13.6141C3.37387 14.3784 3.97564 15 4.71553 15Z"/>
<path d="M13.101 15C13.1306 15 13.1701 15 13.1996 15C13.5548 14.9694 13.8803 14.8064 14.1171 14.521C14.3539 14.2459 14.4624 13.8892 14.4427 13.5122C14.3933 12.7581 13.7521 12.1772 13.0122 12.2282C12.2723 12.2792 11.7199 12.9517 11.7692 13.7058C11.8185 14.4293 12.4006 15 13.101 15Z"/>
</symbol>

<symbol id="video" viewBox="0 0 80 80">
<path d="M74.6339 20.0031C63.5902 0.874518 39.1298 -5.6798 20.003 5.36608C0.874698 16.4084 -5.6798 40.8681 5.36595 59.9959C16.4081 79.1244 40.8678 85.6798 59.9948 74.6349C79.1234 63.5888 85.681 39.1303 74.6339 20.0031ZM55.9965 67.7056C40.6961 76.5425 21.1266 71.2988 12.2923 55.9952C3.45605 40.6946 8.70153 21.1251 24.0024 12.2926C39.3038 3.45615 58.8723 8.69941 67.707 24.0025C76.5421 39.3053 71.2981 58.8707 55.9965 67.7056ZM54.3971 38.3743L33.4554 26.1605C31.547 25.0464 30.0077 25.9371 30.0184 28.1446L30.1257 52.3877C30.1353 54.5947 31.6935 55.4931 33.6075 54.3876L54.3889 42.3893C56.3009 41.2858 56.3049 39.4885 54.3971 38.3743Z" fill="#009FC3"/>
</symbol>
<!-- 
<symbol id="instagram" viewBox="0 0 38 38">
<path d="M26.6796 0H11.3204C5.07831 0 0 5.07831 0 11.3204V26.6796C0 32.9217 5.07831 38 11.3204 38H26.6796C32.9217 38 38 32.9217 38 26.6796V11.3204C37.9999 5.07831 32.9216 0 26.6796 0ZM34.1772 26.6796C34.1772 30.8204 30.8204 34.1772 26.6796 34.1772H11.3204C7.17963 34.1772 3.8228 30.8204 3.8228 26.6796V11.3204C3.8228 7.17956 7.17963 3.8228 11.3204 3.8228H26.6796C30.8204 3.8228 34.1772 7.17956 34.1772 11.3204V26.6796Z" fill="url(#paint0_linear)"/>
<path d="M19 9.17188C13.5807 9.17188 9.17184 13.5808 9.17184 19C9.17184 24.4191 13.5807 28.8281 19 28.8281C24.4192 28.8281 28.8281 24.4192 28.8281 19C28.8281 13.5807 24.4192 9.17188 19 9.17188ZM19 25.0054C15.6833 25.0054 12.9946 22.3167 12.9946 19C12.9946 15.6833 15.6834 12.9947 19 12.9947C22.3167 12.9947 25.0054 15.6833 25.0054 19C25.0054 22.3167 22.3166 25.0054 19 25.0054Z" fill="url(#paint1_linear)"/>
<path d="M28.8472 11.6007C30.1478 11.6007 31.2022 10.5463 31.2022 9.24565C31.2022 7.94501 30.1478 6.89062 28.8472 6.89062C27.5465 6.89062 26.4922 7.94501 26.4922 9.24565C26.4922 10.5463 27.5465 11.6007 28.8472 11.6007Z" fill="url(#paint2_linear)"/>
<defs>
<linearGradient id="paint0_linear" x1="19" y1="37.8894" x2="19" y2="0.295152" gradientUnits="userSpaceOnUse">
<stop stop-color="#E09B3D"/>
<stop offset="0.3" stop-color="#C74C4D"/>
<stop offset="0.6" stop-color="#C21975"/>
<stop offset="1" stop-color="#7024C4"/>
</linearGradient>
<linearGradient id="paint1_linear" x1="19" y1="37.8894" x2="19" y2="0.295182" gradientUnits="userSpaceOnUse">
<stop stop-color="#E09B3D"/>
<stop offset="0.3" stop-color="#C74C4D"/>
<stop offset="0.6" stop-color="#C21975"/>
<stop offset="1" stop-color="#7024C4"/>
</linearGradient>
<linearGradient id="paint2_linear" x1="28.8472" y1="37.8894" x2="28.8472" y2="0.295171" gradientUnits="userSpaceOnUse">
<stop stop-color="#E09B3D"/>
<stop offset="0.3" stop-color="#C74C4D"/>
<stop offset="0.6" stop-color="#C21975"/>
<stop offset="1" stop-color="#7024C4"/>
</linearGradient>
</defs>
</symbol> -->

<symbol id="bank" viewBox="0 0 21 21">
<path d="M20.0114 19.0903H0.95316C0.426601 19.0903 0 19.5177 0 20.0456C0 20.5726 0.426601 21 0.95316 21H20.011C20.5376 21 20.9642 20.5726 20.9642 20.0456C20.9637 19.5177 20.5371 19.0903 20.0114 19.0903Z" fill="#4F4F4F"/>
<path d="M2.1442 16.6077C1.61764 16.6077 1.19104 17.0351 1.19104 17.5625C1.19104 18.09 1.61764 18.5178 2.1442 18.5178H18.82C19.3466 18.5178 19.7732 18.09 19.7732 17.5625C19.7732 17.0351 19.3466 16.6077 18.82 16.6077H18.5822V8.01618H18.82C19.0838 8.01618 19.2962 7.8025 19.2962 7.53922C19.2962 7.27593 19.0829 7.06226 18.82 7.06226H2.1442C1.88092 7.06226 1.66807 7.27593 1.66807 7.53922C1.66807 7.8025 1.88137 8.01618 2.1442 8.01618H2.38249V16.6073H2.1442V16.6077ZM16.6759 8.01618V16.6073H13.8173V8.01618H16.6759ZM11.911 8.01618V16.6073H9.05238V8.01618H11.911ZM4.28792 8.01618H7.1465V16.6073H4.28792V8.01618Z" fill="#4F4F4F"/>
<path d="M0.953178 6.20428H20.011C20.0141 6.20428 20.0177 6.20428 20.0204 6.20428C20.5474 6.20428 20.9735 5.77694 20.9735 5.24946C20.9735 4.83017 20.704 4.4748 20.3296 4.34606L10.8739 0.0838144C10.6253 -0.0279381 10.3411 -0.0279381 10.0921 0.0838144L0.562275 4.37914C0.152184 4.5642 -0.0731646 5.01031 0.0214374 5.45017C0.115593 5.89003 0.503818 6.20428 0.953178 6.20428Z" fill="#4F4F4F"/>
</symbol>

<symbol id="mastercard" viewBox="0 0 33 21">
<path d="M9.33073 9.10693C8.74141 9.10693 8.28967 9.302 8.28967 9.302L8.1649 10.065C8.1649 10.065 8.53754 9.90899 9.1018 9.90899C9.42208 9.90899 9.65603 9.94571 9.65603 10.2136C9.65603 10.3766 9.62762 10.4368 9.62762 10.4368C9.62762 10.4368 9.37529 10.4156 9.25832 10.4156C8.5147 10.4156 7.73376 10.7415 7.73376 11.7277C7.73376 12.5045 8.24566 12.6818 8.56372 12.6818C9.17031 12.6818 9.43211 12.2767 9.44548 12.2756L9.41707 12.6141H10.1741L10.5116 10.1758C10.5111 9.14021 9.63486 9.10693 9.33073 9.10693ZM8.90629 11.9399C8.63947 11.9399 8.56985 11.7305 8.56985 11.6055C8.56985 11.3634 8.6974 11.0719 9.32739 11.0719C9.47444 11.0725 9.49004 11.088 9.51455 11.0926C9.53126 11.2417 9.42431 11.9399 8.90629 11.9399Z" fill="#4F4F4F"/>
<path d="M12.0645 9.92427C12.1854 9.92427 12.6516 9.96386 12.6516 9.96386L12.7602 9.18246C12.7602 9.18246 12.4583 9.11304 11.967 9.11304C11.3309 9.11304 10.6859 9.37465 10.6859 10.2691C10.6859 11.2834 11.7621 11.1801 11.7621 11.6081C11.7621 11.8927 11.4613 11.9162 11.2296 11.9162C10.8279 11.9162 10.467 11.7751 10.4659 11.7808L10.3511 12.5559C10.3717 12.5617 10.5946 12.6638 11.3159 12.6638C11.5092 12.6638 12.616 12.7154 12.616 11.5387C12.616 10.4383 11.5916 10.6558 11.5916 10.2134C11.5916 9.99312 11.7582 9.92427 12.0645 9.92427Z" fill="#4F4F4F"/>
<path d="M13.8733 10.0242H14.3284L14.4381 9.19115H14.0092L14.0967 8.6748H13.2372C13.2182 8.69374 12.7297 11.587 12.7297 11.9381C12.7297 12.4608 13.0144 12.6925 13.4149 12.6885C13.7285 12.6862 13.973 12.5967 14.0593 12.5721L14.1668 11.8194C14.1078 11.8194 14.0215 11.8457 13.9451 11.8457C13.646 11.8457 13.6132 11.6811 13.6321 11.56L13.8733 10.0242Z" fill="#4F4F4F"/>
<path d="M17.4754 5.19092H15.9414C15.7353 5.47778 15.5414 5.78299 15.366 6.08133H18.1026C17.9126 5.77037 17.7027 5.47319 17.4754 5.19092Z" fill="#4F4F4F"/>
<path d="M29.4448 15.2076C29.4281 15.1818 29.4141 15.1622 29.403 15.1502C29.3969 15.1444 29.389 15.1381 29.379 15.1352C29.403 15.1335 29.4231 15.1243 29.4376 15.1088C29.4515 15.0933 29.4593 15.0749 29.4593 15.0536C29.4593 15.0387 29.4549 15.0243 29.4465 15.0111C29.4381 14.9979 29.4259 14.9882 29.4108 14.983C29.3969 14.9772 29.3729 14.9744 29.34 14.9744H29.243V15.2645H29.2887V15.1415H29.3149C29.3305 15.1415 29.3433 15.145 29.3506 15.1519C29.3623 15.1616 29.379 15.1841 29.3985 15.2191L29.4231 15.2651H29.4794L29.4448 15.2076ZM29.3433 15.103H29.2876V15.0157H29.34C29.3617 15.0157 29.3762 15.0175 29.3846 15.0209C29.3935 15.0243 29.3991 15.0295 29.4041 15.0358C29.4086 15.0427 29.4108 15.0502 29.4108 15.0582C29.4108 15.0715 29.4063 15.0829 29.3969 15.091C29.3874 15.0985 29.369 15.103 29.3433 15.103Z" fill="#4F4F4F"/>
<path d="M18.5678 6.95483H14.8875C14.6525 7.41323 14.4965 7.75976 14.4525 7.84582H18.9164C18.8156 7.53945 18.6998 7.24284 18.5678 6.95483Z" fill="#4F4F4F"/>
<path d="M6.6804 8.40137L5.83318 10.9888L5.78917 8.40137H4.53477L3.84741 12.6176H4.67681L5.19985 9.43922L5.27672 12.6176H5.86883L6.97339 9.43922L6.48377 12.6176H7.36386L8.04175 8.40137H6.6804Z" fill="#4F4F4F"/>
<path d="M23.2661 9.10693C22.6756 9.10693 22.2245 9.302 22.2245 9.302L22.0991 10.065C22.0991 10.065 22.4723 9.90899 23.036 9.90899C23.3563 9.90899 23.5908 9.94571 23.5908 10.2136C23.5908 10.3766 23.5613 10.4368 23.5613 10.4368C23.5613 10.4368 23.3095 10.4156 23.1914 10.4156C22.4484 10.4156 21.668 10.7415 21.668 11.7277C21.668 12.5045 22.1805 12.6818 22.498 12.6818C23.104 12.6818 23.3658 12.2767 23.3797 12.2756L23.3513 12.6141H24.1077L24.4453 10.1758C24.447 9.14021 23.5702 9.10693 23.2661 9.10693ZM22.8427 11.9399C22.5754 11.9399 22.5063 11.7305 22.5063 11.6055C22.5063 11.3634 22.6339 11.0719 23.2639 11.0719C23.4103 11.0725 23.4259 11.088 23.451 11.0926C23.4672 11.2417 23.3597 11.9399 22.8427 11.9399Z" fill="#4F4F4F"/>
<path d="M29.4718 12.2295C29.449 12.1859 29.4156 12.1527 29.3738 12.1297C29.3326 12.1062 29.2903 12.0947 29.2457 12.0947C29.2028 12.0953 29.1599 12.1068 29.1176 12.1297C29.0758 12.1527 29.0435 12.1859 29.0201 12.2295C28.9967 12.2726 28.985 12.3173 28.985 12.3638C28.985 12.4103 28.9967 12.4544 29.0201 12.4969C29.0429 12.5394 29.0753 12.5732 29.1165 12.5973C29.1582 12.6208 29.2011 12.6329 29.2457 12.6329C29.2914 12.6329 29.3348 12.6208 29.3755 12.5973C29.4167 12.5732 29.449 12.5394 29.4718 12.4969C29.4958 12.4544 29.5064 12.4103 29.5064 12.3638C29.5064 12.3162 29.4952 12.2714 29.4718 12.2295ZM29.4356 12.4745C29.4167 12.5101 29.39 12.5371 29.3549 12.5583C29.3203 12.5778 29.2847 12.5881 29.2474 12.5881C29.2095 12.5881 29.1733 12.5778 29.1393 12.5583C29.1042 12.5382 29.078 12.5107 29.058 12.4745C29.0379 12.4384 29.029 12.4017 29.029 12.3632C29.029 12.3248 29.0385 12.2875 29.0591 12.2514C29.0786 12.2158 29.1048 12.1882 29.1404 12.1682C29.1761 12.1481 29.2112 12.1395 29.2474 12.1395C29.2836 12.1395 29.3192 12.1487 29.3532 12.1682C29.3889 12.1882 29.415 12.2152 29.4345 12.2514C29.454 12.2875 29.4646 12.3248 29.4646 12.3632C29.4646 12.4017 29.4551 12.439 29.4356 12.4745Z" fill="#4F4F4F"/>
<path d="M29.3345 12.4549C29.3183 12.4279 29.3038 12.409 29.2932 12.3975C29.2865 12.3912 29.2793 12.386 29.2692 12.3825C29.2932 12.3808 29.3127 12.3716 29.3272 12.3561C29.3412 12.3412 29.3495 12.3216 29.3495 12.301C29.3495 12.2866 29.3451 12.2717 29.3361 12.2584C29.3272 12.2458 29.3155 12.236 29.3016 12.2303C29.2876 12.2246 29.2631 12.2217 29.2302 12.2217H29.132V12.5112H29.1778V12.3883H29.204C29.2202 12.3883 29.233 12.3917 29.2408 12.398C29.2525 12.4084 29.2681 12.4302 29.2887 12.4664L29.3127 12.5118H29.369L29.3345 12.4549ZM29.2341 12.3486H29.1789V12.2607H29.2302C29.2525 12.2607 29.267 12.2625 29.2759 12.2653C29.2832 12.2694 29.2899 12.2734 29.2943 12.2809C29.2993 12.2883 29.3016 12.2946 29.3016 12.3044C29.3016 12.317 29.2966 12.328 29.2882 12.336C29.2776 12.3458 29.2603 12.3486 29.2341 12.3486Z" fill="#4F4F4F"/>
<path d="M26.1871 9.14917C25.8022 9.14917 25.5165 9.69018 25.5165 9.69018L25.5933 9.19277H24.7924L24.256 12.6248H25.1383C25.3895 11.1583 25.4352 9.96901 26.0317 10.1865C26.137 9.61962 26.2384 9.39988 26.3526 9.16064C26.3526 9.16122 26.2991 9.14917 26.1871 9.14917Z" fill="#4F4F4F"/>
<path d="M28.4041 8.40602L28.2186 9.59074C28.2186 9.59074 27.8955 9.13005 27.3886 9.13005C26.6004 9.13062 25.9443 10.1088 25.9443 11.2321C25.9443 11.9579 26.2946 12.6687 27.0098 12.6687C27.5251 12.6687 27.8103 12.2987 27.8103 12.2987L27.773 12.6148H28.609L29.2663 8.4043L28.4041 8.40602ZM27.314 11.8082C27.0043 11.8082 26.8595 11.5408 26.8595 11.1208C26.8595 10.4341 27.1586 9.98145 27.5368 9.98145C27.8454 9.98202 28.0041 10.2006 28.0041 10.7158C28.0041 11.1834 27.7796 11.8082 27.314 11.8082Z" fill="#4F4F4F"/>
<path d="M31.5976 0H1.75705C1.3092 0 0.947144 0.37349 0.947144 0.834185V20.1656C0.947144 20.6263 1.3092 20.9998 1.75705 20.9998H31.5976C32.0454 20.9998 32.4075 20.6263 32.4075 20.1656V0.834185C32.4075 0.37349 32.0454 0 31.5976 0ZM29.5828 15.2488C29.5594 15.2924 29.5277 15.3257 29.4865 15.3492C29.4452 15.3728 29.4018 15.3848 29.3572 15.3848C29.3116 15.3848 29.2681 15.3728 29.2269 15.3492C29.1862 15.3257 29.1539 15.2924 29.13 15.2488C29.1071 15.207 29.0954 15.1622 29.0954 15.1157C29.0954 15.0693 29.1071 15.0251 29.1305 14.9815C29.1534 14.9379 29.1868 14.9052 29.228 14.8817C29.2698 14.8593 29.3121 14.8472 29.3567 14.8472C29.4007 14.8472 29.443 14.8593 29.4842 14.8817C29.526 14.9052 29.5589 14.9379 29.5817 14.9815C29.6051 15.0251 29.6163 15.0698 29.6163 15.1157C29.6163 15.1616 29.6062 15.2081 29.5828 15.2488ZM30.1666 10.5002C30.1677 15.0928 26.5549 18.8174 22.0954 18.8185C20.0099 18.8191 18.1083 18.005 16.6756 16.6676C15.243 18.0027 13.3452 18.8162 11.2631 18.8162C6.80641 18.8162 3.18914 15.0911 3.18914 10.5002C3.18914 5.92765 6.778 2.2134 11.2113 2.18357C11.2286 2.18357 11.2458 2.18357 11.2631 2.18357C13.3452 2.18357 15.2435 2.9971 16.6762 4.33214C18.1083 2.99653 20.0077 2.18242 22.0915 2.18185C26.551 2.18013 30.1666 5.90298 30.1677 10.4962C30.1666 10.4973 30.1666 10.4979 30.1666 10.5002Z" fill="#4F4F4F"/>
<path d="M15.8488 15.7583C16.1045 16.0807 16.3752 16.3882 16.6743 16.6671C16.681 16.6608 16.6882 16.655 16.6949 16.6493C16.6949 16.6493 16.6944 16.6493 16.6944 16.6487H16.696C16.9901 16.3728 17.2648 16.0756 17.516 15.7583H15.8488Z" fill="#4F4F4F"/>
<path d="M16.9485 11.1937C16.9485 11.1937 17.0615 10.6199 17.0615 10.3864C17.0615 9.80296 16.7797 9.09155 15.8361 9.09155C14.9716 9.09213 14.3316 10.0514 14.3316 11.1357C14.3316 12.387 15.1332 12.6842 15.8166 12.6842C16.4472 12.6842 16.7246 12.5384 16.7246 12.5384L16.8761 11.6848C16.8761 11.6848 16.3965 11.9028 15.9631 11.9028C15.0401 11.9028 15.2017 11.1937 15.2017 11.1937H16.9485ZM15.8389 9.88615C16.3241 9.88615 16.2344 10.4478 16.2344 10.4926H15.2802C15.2802 10.4346 15.3704 9.88615 15.8389 9.88615Z" fill="#4F4F4F"/>
<path d="M20.9801 9.20926C21.4174 9.20926 21.7688 9.46227 21.7688 9.46227L21.9092 8.52424C21.9092 8.52424 21.389 8.30737 20.9411 8.30737C19.9491 8.30737 18.9838 9.19434 18.9838 10.8598C18.9838 11.9642 19.5046 12.6934 20.5306 12.6934C20.8202 12.6934 21.2826 12.5724 21.2826 12.5724L21.4363 11.6062C21.4363 11.6062 21.0152 11.8237 20.7256 11.8237C20.1151 11.8231 19.8705 11.3435 19.8705 10.8294C19.8705 9.78355 20.3952 9.20926 20.9801 9.20926Z" fill="#4F4F4F"/>
<path d="M14.7711 14.0115C14.9109 14.3207 15.0735 14.615 15.2479 14.9019H18.1126C18.2864 14.6162 18.4429 14.319 18.5827 14.0115H14.7711Z" fill="#4F4F4F"/>
<path d="M18.9682 9.14974C18.5833 9.14974 18.2981 9.69075 18.2981 9.69075L18.3755 9.19334H17.5751L17.0387 12.6253H17.921C18.1711 11.1595 18.2179 9.96958 18.8145 10.187C18.9192 9.61961 19.02 9.39988 19.1342 9.16007C19.1342 9.16007 19.0807 9.14859 18.9682 9.14974Z" fill="#4F4F4F"/>
</symbol>

<symbol id="visa" viewBox="0 0 43 14">
<path d="M17.5003 0.711182L15.3916 13.0098H18.7641L20.8745 0.711182H17.5003Z" fill="#4F4F4F"/>
<path d="M12.5639 0.725243L9.26077 9.11255L8.9086 7.84613C8.25718 6.32023 6.40786 4.12879 4.23672 2.74771L7.25705 13.004L10.8256 12.998L16.1367 0.722656L12.5639 0.725243Z" fill="#4F4F4F"/>
<path d="M7.62812 1.60586C7.43209 0.856697 6.86393 0.633414 6.15872 0.606689H0.929967L0.886597 0.851524C4.95562 1.83259 7.64807 4.19645 8.7653 7.03877L7.62812 1.60586Z" fill="#4F4F4F"/>
<path d="M27.7096 3.06904C28.813 3.0518 29.6127 3.29146 30.2338 3.53974L30.5383 3.68199L30.9945 1.01639C30.3266 0.767248 29.2796 0.5 27.9733 0.5C24.6407 0.5 22.2918 2.16815 22.2736 4.55873C22.2519 6.32516 23.9468 7.3114 25.2271 7.90021C26.5412 8.50367 26.9819 8.88731 26.9758 9.42612C26.9654 10.2494 25.928 10.627 24.9591 10.627C23.6085 10.627 22.8912 10.4417 21.7835 9.98303L21.3489 9.78647L20.8744 12.5391C21.6638 12.8831 23.1201 13.1788 24.632 13.1943C28.1772 13.1943 30.481 11.546 30.5053 8.99162C30.52 7.59416 29.6205 6.52776 27.6715 5.65273C26.4918 5.08203 25.7701 4.7027 25.777 4.12683C25.777 3.6156 26.3894 3.06904 27.7096 3.06904Z" fill="#4F4F4F"/>
<path d="M39.6495 0.725342H37.0438C36.2345 0.725342 35.6325 0.944314 35.2769 1.74606L30.2693 13.0171H33.811C33.811 13.0171 34.3887 11.5015 34.5196 11.1696C34.9074 11.1696 38.3484 11.1748 38.8385 11.1748C38.9391 11.6041 39.2496 13.0171 39.2496 13.0171H42.3784L39.6495 0.725342ZM35.4903 8.65229C35.7678 7.94624 36.8339 5.21512 36.8339 5.21512C36.8157 5.24875 37.1089 4.5039 37.2832 4.04095L37.5105 5.10133C37.5105 5.10133 38.1567 8.03762 38.292 8.65229H35.4903Z" fill="#4F4F4F"/>
</symbol>

<symbol id="wallet" viewBox="0 0 24 23">
<path d="M6.23291 4.21444L15.4757 1.70473L14.9862 0.720527C14.666 0.0807972 13.8849 -0.183383 13.2418 0.135187L4.96756 4.21444H6.23291Z" fill="#4F4F4F"/>
<path d="M18.3449 1.77759C18.2304 1.77759 18.1158 1.79313 18.0012 1.82421L15.8298 2.41473L9.19846 4.21478H16.7255H20.006L19.5998 2.7333C19.4436 2.15573 18.9177 1.77759 18.3449 1.77759Z" fill="#4F4F4F"/>
<path d="M21.3625 5.12109H21.0657H20.6621H20.2586H17.1785H5.86069H4.37663H3.12691H2.89519H2.11931C1.70795 5.12109 1.34084 5.31016 1.10131 5.60801C0.991956 5.74528 0.90864 5.90327 0.861776 6.0768C0.833136 6.18558 0.814911 6.29954 0.814911 6.41609V6.57149V8.04779V20.845C0.814911 21.5598 1.39812 22.14 2.11671 22.14H21.3599C22.0785 22.14 22.6617 21.5598 22.6617 20.845V17.2319H14.9368C13.7157 17.2319 12.7238 16.2451 12.7238 15.0304V13.8442V13.4428V13.0413V12.1503C12.7238 11.5546 12.9633 11.0134 13.3512 10.6171C13.6949 10.2648 14.1558 10.0266 14.6713 9.96698C14.7572 9.95665 14.8457 9.95144 14.9342 9.95144H21.5786H21.9822H22.3857H22.6617V6.41609C22.6643 5.70125 22.0811 5.12109 21.3625 5.12109Z" fill="#4F4F4F"/>
<path d="M23.5756 11.1894C23.4454 11.0702 23.2918 10.9796 23.1199 10.92C22.9871 10.876 22.8465 10.8501 22.6981 10.8501H22.6643H22.6383H22.2347H20.7793H14.9368C14.2182 10.8501 13.635 11.4302 13.635 12.1451V12.79V13.1914V13.5929V15.0277C13.635 15.7426 14.2182 16.3227 14.9368 16.3227H22.6643H22.6981C22.8465 16.3227 22.9871 16.2968 23.1199 16.2528C23.2918 16.1958 23.4454 16.1026 23.5756 15.9835C23.8359 15.7478 23.9999 15.4059 23.9999 15.0278V12.1451C23.9999 11.7669 23.8359 11.425 23.5756 11.1894ZM17.655 13.8441C17.655 14.2015 17.3634 14.4916 17.0041 14.4916H16.5719C16.2126 14.4916 15.921 14.2015 15.921 13.8441V13.4142C15.921 13.207 16.0173 13.0231 16.1709 12.9065C16.2829 12.821 16.4209 12.7667 16.5719 12.7667H16.6812H17.0041C17.3634 12.7667 17.655 13.0567 17.655 13.4142V13.8441Z" fill="#4F4F4F"/>
</symbol>

<symbol id="arrowRight" viewBox="0 0 5 8">
<path fill-rule="evenodd" clip-rule="evenodd" d="M3.12789 4.04142L0.241455 1.15498L0.948562 0.447876L4.54211 4.04142L0.948562 7.63496L0.241455 6.92786L3.12789 4.04142Z" fill="white"/>
</symbol>













</svg>