<svg style="display: none" xmlns="http://www.w3.org/2000/svg">

<symbol id="phone" viewBox="0 0 30 30">
<path d="M15.0001 0C6.71635 0 0 6.71632 0 15C0 23.2836 6.71635 30 15.0001 30C23.2838 30 30 23.2835 30 15C30.0001 6.71632 23.2838 0 15.0001 0ZM22.9211 21.8867L21.7201 23.0879C21.5056 23.302 20.8778 23.4357 20.8576 23.4357C17.0581 23.4688 13.3997 21.9764 10.7118 19.2882C8.01649 16.5913 6.52233 12.92 6.56246 9.10767C6.56246 9.10594 6.69997 8.49606 6.9142 8.28386L8.11517 7.08272C8.55465 6.6412 9.39886 6.44168 9.99025 6.63953L10.2429 6.7238C10.8325 6.92147 11.4516 7.57345 11.6146 8.17412L12.2187 10.3914C12.3816 10.9938 12.1619 11.8508 11.7225 12.2903L10.9206 13.0923C11.7079 16.0071 13.9949 18.2945 16.9101 19.0837L17.7118 18.2815C18.1533 17.84 19.01 17.6204 19.6111 17.7831L21.8281 18.3894C22.4289 18.5545 23.0807 19.1697 23.2783 19.7591L23.3626 20.0154C23.5585 20.6051 23.3605 21.4492 22.9211 21.8867Z"/>
</symbol>

<symbol id="viber" viewBox="0 0 11 11">
<path d="M5.91918 1.23117C5.91927 1.23117 5.91927 1.23117 5.91943 1.23117C6.93857 1.23117 7.89673 1.61754 8.61741 2.31902C9.33818 3.02059 9.73513 3.95338 9.73504 4.94553C9.73504 5.28552 10.0181 5.56115 10.3674 5.56115C10.3675 5.56115 10.3675 5.56115 10.3675 5.56115C10.7168 5.56115 11 5.2856 11 4.94561C11.0001 3.62456 10.4716 2.38255 9.5119 1.44844C8.55231 0.514335 7.27656 0 5.91943 0C5.91935 0 5.9191 0 5.91901 0C5.56972 0 5.28662 0.275636 5.28662 0.615626C5.28671 0.955533 5.56989 1.23117 5.91918 1.23117Z"/>
<path d="M5.91901 3.39605C6.79672 3.39621 7.51092 4.09129 7.511 4.94554C7.51108 5.28553 7.79418 5.56116 8.14356 5.56108C8.49294 5.56108 8.77604 5.28536 8.77595 4.94537C8.7757 3.41238 7.49422 2.16504 5.91918 2.16479H5.9191C5.5698 2.16479 5.28671 2.44035 5.28662 2.78034C5.28662 3.12033 5.56972 3.39605 5.91901 3.39605Z"/>
<path d="M3.08288 4.45086C2.79456 4.64277 2.7206 5.02586 2.91768 5.3065C3.11476 5.58714 3.50841 5.65905 3.79674 5.46722C4.0235 5.31635 4.55461 4.9629 4.51734 4.25632C4.49373 3.83343 4.10184 3.22962 3.77726 2.79754C3.30248 2.16533 2.89331 1.78455 2.56366 1.66651C2.25586 1.55496 1.93397 1.55258 1.60626 1.65961C0.927486 1.88222 0.43466 2.28452 0.181163 2.82298C-0.0656711 3.34717 -0.0601897 3.94958 0.197102 4.56545C0.804785 6.01652 1.65551 7.28693 2.73131 8.34679C3.81453 9.38834 5.11963 10.2164 6.61101 10.8082C6.93374 10.936 7.25301 11 7.55989 11C7.8542 11 8.13713 10.9412 8.40075 10.8236C8.95395 10.5767 9.36717 10.0971 9.59613 9.43562C9.70576 9.11739 9.70331 8.80424 9.58963 8.50669C9.46752 8.18352 9.07623 7.78534 8.4268 7.32321C7.98281 7.00727 7.36247 6.62583 6.92632 6.60276C6.20192 6.5673 5.83913 7.08336 5.68413 7.30408C5.48697 7.58473 5.56076 7.96781 5.84908 8.1598C6.13749 8.35179 6.53098 8.27989 6.72823 7.99925C6.79704 7.90132 6.83634 7.85683 6.85885 7.83738C7.21388 7.94811 8.22627 8.67208 8.40851 8.94953C8.41298 8.96726 8.41399 8.99426 8.39712 9.04343C8.31734 9.274 8.16175 9.57582 7.87377 9.70437C7.60399 9.82454 7.29745 9.75083 7.08815 9.668C5.75177 9.13766 4.58506 8.3985 3.62572 7.47613C2.6727 6.53718 1.91331 5.40155 1.36879 4.10127C1.28344 3.89705 1.20763 3.59851 1.33117 3.33617C1.46315 3.05585 1.77332 2.90433 2.00944 2.82684C2.05987 2.81042 2.08762 2.81133 2.10684 2.81584C2.39196 2.99355 3.13534 3.97839 3.24918 4.32404C3.22911 4.34563 3.18349 4.38396 3.08288 4.45086Z"/>
</symbol>

<symbol id="whatsapp" viewBox="0 0 13 13">
<path d="M13 6.33317C13 9.82855 10.1438 12.6669 6.61972 12.6669C5.50227 12.6669 4.44979 12.3787 3.53546 11.8793L0 13L1.15375 9.6005C0.570905 8.64718 0.235632 7.52864 0.235632 6.33371C0.235632 2.83672 3.09291 0 6.61969 0C10.1438 0 13 2.83672 13 6.33317ZM6.61969 1.00859C3.66166 1.00859 1.25233 3.39572 1.25233 6.33371C1.25233 7.50045 1.63257 8.57946 2.27392 9.45695L1.60549 11.4292L3.66762 10.7775C4.51371 11.3344 5.52878 11.6556 6.61969 11.6556C9.57557 11.6556 11.9844 9.26738 11.9844 6.32939C11.9844 3.39626 9.57557 1.00859 6.61969 1.00859ZM9.83992 7.79241C9.80199 7.72904 9.698 7.69057 9.54363 7.60716C9.38276 7.5297 8.61684 7.15865 8.46951 7.10773C8.32923 7.05572 8.22521 7.03027 8.12122 7.18464C8.01233 7.33793 7.71605 7.69111 7.62559 7.79239C7.52919 7.89529 7.43925 7.90831 7.28434 7.8314C7.1316 7.75503 6.62459 7.59036 6.02821 7.05953C5.56453 6.65058 5.24875 6.14302 5.15829 5.98541C5.06512 5.82887 5.14747 5.74546 5.22547 5.66909C5.29861 5.59867 5.38256 5.48601 5.46002 5.3961C5.54074 5.30674 5.56619 5.24282 5.61765 5.13989C5.66966 5.03372 5.6431 4.94436 5.60466 4.86418C5.56618 4.78673 5.25095 4.02461 5.12203 3.71316C4.99041 3.40279 4.86258 3.45425 4.7721 3.45425C4.67784 3.45425 4.57603 3.44126 4.46986 3.44126C4.36695 3.44126 4.19687 3.47918 4.05169 3.63679C3.91032 3.79061 3.5046 4.16599 3.5046 4.93082C3.5046 5.69348 4.06469 6.43449 4.14486 6.53631C4.22286 6.63921 5.22547 8.25446 6.81745 8.87632C8.40726 9.49814 8.40725 9.29285 8.6965 9.26686C8.9787 9.24087 9.62274 8.88986 9.75167 8.5302C9.87836 8.16453 9.87836 7.85688 9.83992 7.79241Z"/>
</symbol>

<symbol id="mail" viewBox="0 0 13 11">
<path d="M12.659 0.367165C12.4318 0.122343 12.1584 0 11.8393 0H1.16074C0.841551 0 0.56825 0.122343 0.34094 0.367165C0.113604 0.611932 0 0.906227 0 1.25002V9.75006C0 10.0939 0.113604 10.388 0.34094 10.6327C0.568224 10.8777 0.841525 11 1.16074 11H11.8393C12.1585 11 12.4318 10.8777 12.6591 10.6327C12.8864 10.388 13 10.0937 13 9.75006V1.25002C13 0.906227 12.8864 0.611932 12.659 0.367165ZM12.0713 9.74987C12.0713 9.81759 12.0484 9.87618 12.0024 9.92565C11.9564 9.97518 11.902 9.9997 11.8392 9.9997H1.16066C1.0978 9.9997 1.04338 9.97518 0.997461 9.92565C0.951496 9.87618 0.928551 9.81759 0.928551 9.74987V3.74993C1.08329 3.93743 1.25015 4.10933 1.42911 4.26555C2.72528 5.33845 3.75539 6.21859 4.51955 6.90613C4.76619 7.13013 4.96693 7.30457 5.12167 7.4296C5.27641 7.55468 5.48558 7.68093 5.74912 7.80847C6.01269 7.93621 6.26058 7.99977 6.49272 7.99977H6.50001H6.50723C6.73932 7.99977 6.98731 7.93621 7.25078 7.80847C7.51442 7.68093 7.72372 7.5547 7.87841 7.4296C8.03312 7.30457 8.23388 7.13013 8.48055 6.90613C9.24471 6.21859 10.2747 5.33845 11.5709 4.26555C11.7499 4.10935 11.9168 3.93743 12.0713 3.74993V9.74987ZM12.0713 1.45309V1.53901C12.0713 1.84628 11.959 2.18876 11.7341 2.56632C11.5092 2.94388 11.2661 3.24472 11.0051 3.46861C10.0716 4.2604 9.10204 5.08582 8.09588 5.94518C8.06692 5.9712 7.9822 6.04798 7.84189 6.17552C7.70179 6.30326 7.5905 6.40103 7.50825 6.46864C7.4259 6.53645 7.31842 6.61846 7.18547 6.71472C7.05243 6.81099 6.93034 6.88274 6.81913 6.92956C6.70791 6.97627 6.60391 6.99966 6.50723 6.99966H6.50001H6.49272C6.39601 6.99966 6.29211 6.97627 6.18082 6.92956C6.06961 6.88274 5.94744 6.81099 5.8145 6.71472C5.68158 6.61843 5.57395 6.53642 5.49173 6.46864C5.40955 6.40103 5.29826 6.30326 5.15805 6.17552C5.0178 6.04798 4.93308 5.9712 4.90409 5.94518C3.89817 5.0858 2.92853 4.2604 1.99507 3.46861C1.2841 2.86453 0.928678 2.12489 0.928678 1.24989C0.928678 1.18224 0.951623 1.1236 0.997588 1.07419C1.04355 1.02468 1.09793 0.99992 1.16079 0.99992H11.8394C11.878 1.02332 11.9119 1.02983 11.9409 1.01949C11.97 1.00895 11.9917 1.02854 12.0061 1.07799C12.0207 1.12749 12.034 1.15089 12.046 1.14831C12.0582 1.14569 12.0655 1.17822 12.0679 1.24603C12.0701 1.3137 12.0713 1.34777 12.0713 1.34777V1.45309H12.0713Z"/>
</symbol>

<symbol id="arrowDown" viewBox="0 0 11 7">
<path d="M1 1L5.5 5.5L10 1" stroke="#009FC3"/>
</symbol>

<symbol id="basket" viewBox="0 0 16 15">
<path d="M0.591912 1.22283H2.28871L4.7057 10.2513C4.77474 10.5163 5.01151 10.6997 5.27787 10.6997H12.7064C12.9431 10.6997 13.1503 10.557 13.2489 10.3329L15.952 3.91304C16.0309 3.71944 16.0112 3.50544 15.9027 3.3322C15.7941 3.15895 15.6067 3.05706 15.4094 3.05706H7.20158C6.87603 3.05706 6.60967 3.3322 6.60967 3.66848C6.60967 4.00475 6.87603 4.27989 7.20158 4.27989H14.5018L12.3118 9.47689H5.7218L3.30485 0.448381C3.23581 0.183424 2.99904 0 2.73268 0H0.591912C0.26636 0 0 0.275136 0 0.611412C0 0.947689 0.26636 1.22283 0.591912 1.22283Z"/>
<path d="M4.71553 15C5.45542 15 6.05718 14.3784 6.05718 13.6141C6.05718 12.8499 5.45542 12.2283 4.71553 12.2283C3.97564 12.2283 3.37387 12.8498 3.37387 13.6141C3.37387 14.3784 3.97564 15 4.71553 15Z"/>
<path d="M13.101 15C13.1306 15 13.1701 15 13.1996 15C13.5548 14.9694 13.8803 14.8064 14.1171 14.521C14.3539 14.2459 14.4624 13.8892 14.4427 13.5122C14.3933 12.7581 13.7521 12.1772 13.0122 12.2282C12.2723 12.2792 11.7199 12.9517 11.7692 13.7058C11.8185 14.4293 12.4006 15 13.101 15Z"/>
</symbol>






</svg>