<svg id="Twitter" xmlns="http://www.w3.org/2000/svg" width="35" height="35" viewBox="0 0 35 35">
  <defs>
    <style>
      .cls-1 {
        fill: #2ba4d1;
      }

      .cls-2 {
        fill: #fff;
        fill-rule: evenodd;
      }
    </style>
  </defs>
  <rect id="Shape" class="cls-1" width="35" height="35" rx="2" ry="2"/>
  <path id="Twitter-2" data-name="Twitter" class="cls-2" d="M900.256,399.4s0.237-3.348,2.571-3.377c1.9-.025,2.264.838,2.264,0.838a4.285,4.285,0,0,0,1.557-.862,2.551,2.551,0,0,1-.637,1.508,1.574,1.574,0,0,0,.99-0.359,1.941,1.941,0,0,1-1.038,1.244,9.716,9.716,0,0,1-1.6,5.917c-1.7,2.469-4.792,2.653-6.488,2.674a9.046,9.046,0,0,1-3.867-1.127s2.573,0.032,3.725-.81a18.237,18.237,0,0,1-2.55-2.107,2.542,2.542,0,0,0,.923-0.093,13.754,13.754,0,0,1-2.1-2.9,3.357,3.357,0,0,0,.968.05s-1.5-2.435-.79-4.015C894.184,395.985,896.719,399.187,900.256,399.4Z" transform="translate(-883 -384)"/>
</svg>
